<svg width="114" height="50" viewBox="0 0 114 50" fill="none" xmlns="http://www.w3.org/2000/svg">
<path d="M0 37.2759L20.6498 49.1901V36.7694L10.7617 31.0582V19.7166L0 13.543V37.2759Z" fill="#7ACDF4"/>
<path d="M32.285 19.7103V31.0592L22.3969 36.7704V49.1911L43.0393 37.2696V13.5293L32.285 19.7103Z" fill="#970A31"/>
<path d="M21.5232 0L0.785361 11.9729L11.5691 18.1686L21.5232 12.4207L31.4627 18.1612L42.2464 11.9656L21.5232 0ZM0.00723267 12.5014V12.7657L21.3397 24.8928V49.4332H21.7067V24.8928L43.0466 12.7657V12.5969L42.8337 12.4721L21.5232 24.5991L0.132027 12.428L0.00723267 12.5014Z" fill="#004889"/>
<path fill-rule="evenodd" clip-rule="evenodd" d="M52.9494 12.8751H68.1156V17.6246H58.7047V22.0584H66.6988V26.8814H58.7047V31.9539H68.468V36.7768H52.9494V12.8751ZM71.6759 33.7891L74.9206 29.8324C76.6236 31.2785 78.8406 32.2769 80.7345 32.2769C82.856 32.2769 83.8544 31.4767 83.8544 30.1921C83.8544 28.8047 82.5404 28.3569 80.4776 27.4907L77.4311 26.206C74.9206 25.2077 72.5788 23.1229 72.5788 19.6506C72.5788 15.6352 76.1758 12.4199 81.2484 12.4199C84.0159 12.4199 86.9375 13.4843 89.0297 15.5691L86.1667 19.1662C84.5958 17.9843 83.1129 17.3383 81.2484 17.3383C79.4866 17.3383 78.3928 18.043 78.3928 19.3276C78.3928 20.6123 79.905 21.1629 82.0192 21.9997L85.0069 23.1889C87.9652 24.3708 89.7344 26.3675 89.7344 29.737C89.7344 33.723 86.3943 37.2246 80.6097 37.2246C77.4899 37.2246 74.1498 36.0721 71.6759 33.7891ZM106.633 36.7768L102.228 28.3569H99.4683V36.7768H93.7131V12.8751H102.485C107.595 12.8751 111.83 14.6075 111.83 20.3921C111.83 23.8937 110.193 26.1399 107.719 27.2998L113.056 36.7768H106.633ZM99.4683 23.8276H102.038C104.768 23.8276 106.215 22.6384 106.215 20.3921C106.215 18.1458 104.768 17.4044 102.038 17.4044H99.4683V23.8276Z" fill="black"/>
</svg>
