<svg width="135" height="28" viewBox="0 0 135 28" fill="none" xmlns="http://www.w3.org/2000/svg">
<path d="M30.5921 0.015625V9.66532C33.0225 8.25517 36.526 8.2243 38.8857 9.79141C44.1969 13.318 42.1177 21.6464 42.5461 27.0348H38.6901V16.2914C38.6901 16.0084 38.263 14.7449 38.1086 14.4284C36.7821 11.7046 32.607 11.6364 31.2123 14.3396C31.081 14.5944 30.5921 15.9646 30.5921 16.1628V27.0348H26.7361V0.015625H30.5921Z" fill="#EE255C"/>
<path d="M62.5994 19.4433H49.36C49.45 20.2744 49.9004 21.26 50.451 21.8892C52.3501 24.0597 57.6922 23.7084 58.8733 20.8586L62.3382 22.5955C60.3362 26.4039 55.6554 27.7073 51.6463 26.7397C42.3453 24.4933 43.1584 7.54457 55.191 8.65364C58.9826 9.0036 62.5981 12.5302 62.5981 16.421V19.4446L62.5994 19.4433ZM58.6147 15.8407C57.7861 11.1445 50.2555 11.1754 49.36 15.8407H58.6147Z" fill="#EE255C"/>
<path d="M78.924 27.0349V25.6209C78.4171 25.8512 77.9899 26.1948 77.4688 26.4161C74.7335 27.5753 70.8903 27.1198 68.5796 25.2311C65.5302 22.7376 64.9255 17.9012 66.0037 14.2973C67.6339 8.84204 74.3706 6.99702 78.9227 10.0528V8.63747H82.6514V27.0362H78.924V27.0349ZM73.3697 12.406C67.9131 12.985 67.962 22.0094 72.6183 23.1171C75.7358 23.8595 78.5136 22.3928 78.8867 19.0874C79.3332 15.1414 77.7854 11.9377 73.3684 12.406H73.3697Z" fill="#EE255C"/>
<path d="M105.66 8.63672V18.9941C105.66 19.8278 106.393 21.6728 107.005 22.2801C108.368 23.6272 111.198 23.6246 112.523 22.2621C113.172 21.5943 113.887 19.775 113.887 18.8667V8.638H117.614V27.0368H113.887V26.0075C111.044 27.4871 107.368 27.4433 104.828 25.3603C103.453 24.2332 101.933 21.2804 101.933 19.5087V8.63672H105.66Z" fill="#EE255C"/>
<path d="M134.71 13.6547L131.062 13.8966C130.894 13.8374 130.787 13.409 130.604 13.198C129.418 11.8264 124.135 12.0554 124.741 14.4306C125.15 16.035 128.418 15.6606 129.725 15.8793C133.006 16.4287 135.367 18.6944 134.953 22.1992C134.172 28.806 120.984 28.7687 120.71 21.7733L124.426 21.3758C124.522 23.702 129.022 23.6132 130.383 22.7705C131.392 22.1464 131.586 20.9074 130.587 20.1625C129.325 19.2219 126.809 19.6144 125.223 19.2271C119.349 17.7925 119.553 9.96082 125.683 8.80157C129.427 8.09393 134.302 9.16182 134.71 13.6547Z" fill="#EE255C"/>
<path d="M90.3636 0.015625H86.6362V27.0348H90.3636V0.015625Z" fill="#EE255C"/>
<path d="M3.85602 8.63672H0V27.0355H3.85602V8.63672Z" fill="#043673"/>
<path d="M19.1526 8.63672H15.2966V27.0355H19.1526V8.63672Z" fill="#043673"/>
<path d="M98.0755 8.63672H94.2195V27.0355H98.0755V8.63672Z" fill="#EE255C"/>
<path d="M11.4394 19.7012H7.71204V27.0349H11.4394V19.7012Z" fill="#EE255C"/>
<path d="M11.4395 8.63672H7.71216V15.8418H11.4395V8.63672Z" fill="#EE255C"/>
<path d="M95.6001 0.046792C98.0679 -0.40996 99.1551 2.59817 97.2998 3.80503C95.7224 4.83175 93.8194 3.4705 94.1012 1.63191C94.1964 1.00919 94.9813 0.161302 95.6014 0.046792H95.6001Z" fill="#EE255C"/>
</svg>
