<svg width="145" height="31" viewBox="0 0 145 31" fill="none" xmlns="http://www.w3.org/2000/svg">
<path d="M26.5973 25.7826C19.4439 18.9254 21.2657 6.52009 29.9893 1.93059C41.6493 -4.20042 55.7395 5.07731 52.7775 18.4095C50.2009 30.0122 34.9928 33.8278 26.5973 25.7794V25.7826ZM43.6431 8.17307C39.6237 4.38936 32.4512 5.47224 29.9351 10.4567C26.0304 18.1865 33.3048 27.1107 41.4901 23.3398C47.2357 20.6931 48.1657 12.4281 43.6463 8.17307H43.6431Z" fill="#002148"/>
<path d="M101.698 0.153746C123.229 -1.77633 124.703 28.9106 104.31 30.0444C83.9551 31.1751 82.2416 1.89909 101.698 0.153746ZM103.042 5.86434C91.2327 6.30705 91.978 25.2606 104.501 24.1268C115.289 23.149 114.378 5.44075 103.042 5.86434Z" fill="#002148"/>
<path d="M84.1781 24.7975C84.1781 24.8484 84.3533 24.9695 84.3341 25.1478L84.2004 25.3708C78.1968 30.9731 67.2915 31.8776 61.0809 26.1351C54.1441 19.7207 55.2015 7.54784 63.1989 2.49335C69.0687 -1.21711 77.7509 -0.697964 83.0506 3.83102C83.1716 4.63044 79.8498 7.65295 79.4102 8.58932C78.9803 8.86641 77.6044 7.61791 77.0534 7.30897C69.4828 3.06345 61.6701 8.93329 63.39 17.3383C64.7786 24.1255 72.6168 25.8867 78.0694 22.6031V18.4053H72.4384C72.1454 18.4053 71.2186 18.5136 71.3906 18.1218L75.8749 12.8731H84.1781C84.1653 16.8447 84.1972 20.8227 84.1781 24.7943V24.7975Z" fill="#002148"/>
<path d="M132.242 0.147162C136.083 0.0420594 140.475 1.20138 143.338 3.83532L139.784 8.0904C139.239 8.27194 138.529 7.50756 138.007 7.24639C135.863 6.17944 133.876 5.54245 131.417 5.81954C128.958 6.09663 127.703 8.8739 129.732 10.3676C131.681 11.804 136.159 12.3041 138.628 13.3041C143.15 15.1419 145.338 18.7536 143.931 23.6648C141.386 32.5539 126.592 30.8786 121.41 25.3464L125.117 20.9257C127.904 23.2029 131.64 24.9355 135.341 24.238C138.281 23.6839 139.029 20.6391 136.223 19.1421C131.707 16.7311 124.041 17.6293 122.592 11.0205C121.142 4.4118 126.156 0.312779 132.242 0.147162Z" fill="#002148"/>
<path d="M6.29987 0.478516V23.4642L6.58651 23.7509H20.7117L20.9952 24.0375V29.4742H6.10352e-05V0.761975L0.286706 0.478516H6.29987Z" fill="#002148"/>
</svg>
