<svg width="123" height="50" viewBox="0 0 123 50" fill="none" xmlns="http://www.w3.org/2000/svg">
<path d="M102.583 0L97.9828 15.9064C96.8527 15.8036 95.4934 15.2475 94.9805 16.6334L82.0751 16.6262C80.9672 16.7541 81.0031 17.9518 82.1871 18.0919L95.6608 18.0825C95.8254 18.4238 95.8663 18.8146 96.0847 19.1386C96.2255 19.347 96.625 19.5891 96.6343 19.6293C96.722 20.013 96.2895 20.9362 96.5984 21.4341C98.0533 23.0858 98.7193 19.3341 99.3357 18.4353C99.5764 18.2607 102.069 19.602 102.628 19.5503C103.42 19.4763 103.309 18.6235 103.033 18.0904H109.269C109.502 18.0904 109.847 17.5925 109.858 17.3404C109.867 17.1435 109.483 16.6298 109.381 16.6298H101.74C101.712 16.6298 101.597 16.5012 101.58 16.4473C101.401 15.864 102.949 14.9573 102.418 14.4939C101.834 13.9852 100.201 15.8043 100.135 14.4666L104.718 0H122.92V36.9101C122.92 38.153 120.964 40.2271 119.771 40.6151C118.573 41.0038 115.98 40.8234 115.229 39.6574C114.403 38.3743 115.163 35.1937 115.427 33.6871C115.741 31.9047 116.908 28.3196 116.31 26.7786C115.606 24.9638 113.557 24.7777 111.886 25.2016C110.009 25.6779 109.765 27.3562 108.818 28.7636C108.834 25.8611 104.811 25.7699 103.312 27.5272C101.831 29.2637 100.94 33.3574 98.7559 34.5442C96.8958 35.5544 96.8887 33.5219 97.1272 32.2416C97.4253 30.6416 98.7351 27.5502 98.2559 26.0687C97.6682 24.2532 94.6694 24.4091 93.4258 25.3941C92.4616 26.1578 91.7151 29.5216 91.1418 30.8629C90.6468 32.0225 89.6489 34.1354 88.6402 34.8783C88.3104 35.1211 87.9785 35.3748 87.5395 35.2684C87.2514 35.0673 87.268 32.649 87.3032 32.1935C87.365 31.3917 87.6904 30.5971 87.7551 29.8363C87.8434 28.8017 87.5582 27.9741 87.5216 27.0279C87.4052 24.0449 88.2041 19.7443 83.6808 20.2565C81.6461 20.4872 78.6668 21.549 77.13 22.9191C74.5723 25.1994 74.8382 29.7716 72.6757 32.5096C71.4126 34.1089 66.9949 35.0119 65.0293 34.8014C59.0619 34.1627 60.1747 29.2788 61.4571 24.999C62.4407 21.7164 64.795 16.1901 67.9411 14.5169C68.4483 14.2475 69.7092 13.6296 69.8845 14.5557C70.0519 15.4422 69.1783 15.5055 68.597 15.9588C65.5961 18.2981 65.4675 25.2339 69.9384 25.6233C76.8469 26.2246 79.1697 13.9802 74.3051 10.582C70.7531 8.10046 65.5106 8.78585 62.052 11.0992C59.8816 12.5512 57.5646 16.0601 56.2714 18.3527C56.0286 18.7837 55.0436 21.0138 54.9172 21.1C54.8187 21.1675 54.545 21.1294 54.3388 21.2516C54.0205 21.4405 53.713 21.8033 53.4063 22.0045C52.33 22.7093 49.2903 23.695 48.444 22.3982C47.2434 20.559 48.5165 16.0443 50.6719 15.1692C49.9046 17.321 50.0016 19.3434 52.8667 18.9921C55.3324 18.6896 55.9567 12.7826 52.6706 11.7674C45.4818 9.54669 38.4712 22.9938 46.2146 26.0889C48.5675 27.0293 51.197 26.5077 53.4817 25.6197C53.3229 26.451 53.1124 27.3038 53.0341 28.1486C52.672 32.0634 53.5887 36.0293 56.9295 38.4073C62.1433 42.1181 68.5626 40.4304 73.522 37.2039C76.0495 40.0791 79.6424 40.8349 82.7511 38.3118C85.0322 40.1064 87.5604 40.3284 90.0333 38.7443C90.8738 38.2054 91.514 37.4525 92.3007 36.854C94.673 40.4024 99.6374 39.8162 102.357 36.9683C102.373 38.0035 104.006 39.1229 104.862 39.4634C105.922 39.8844 106.667 39.4426 107.359 38.6545L108.986 35.8446C109.123 36.872 109.196 37.8965 109.469 38.9016C111.196 45.2771 117.937 46.224 122.92 42.8099V49.2141H0V0H102.583ZM34.1556 27.7528C34.0384 31.6575 32.5649 37.9066 37.663 39.2464C39.0719 39.6164 40.3284 39.5827 40.9808 38.1156C41.6841 36.535 40.8299 35.8461 40.6869 34.4243C40.6158 33.7108 40.6366 32.6942 40.6747 31.9672C40.9707 26.313 42.6533 20.3859 42.9256 14.6678C43.0894 11.2271 43.1692 8.6048 38.8556 9.36205C34.6405 10.102 34.6419 13.1145 33.4852 16.4631C32.0246 20.6905 29.893 24.6355 27.7513 28.5388C27.4661 28.3994 27.7413 27.8261 27.7513 27.5832C27.9274 23.5477 28.1594 19.2521 27.982 15.2202C27.9453 14.3897 27.8519 12.6382 27.5804 11.914C27.0925 10.6121 24.8036 10.8011 23.6849 11.0446C19.3283 11.9937 19.8571 14.644 18.8196 18.2018C17.2427 23.6109 14.246 31.1546 11.5188 36.0695C10.582 37.7578 10.3952 37.5164 8.99277 38.4878C7.55588 39.4835 8.67378 41.2954 10.1804 41.4478C12.557 41.6892 14.2 39.5309 15.4171 37.8333C17.8038 34.5062 19.6825 30.5842 21.3486 26.854C21.544 26.8274 21.4542 27.1098 21.4592 27.2456C21.5361 29.3276 21.0052 32.769 21.6819 34.5521C22.3824 36.3978 24.2302 37.4985 26.2074 37.1637C27.8756 36.8813 30.5734 33.3437 31.5505 31.9449L34.1541 27.7528H34.1556Z" fill="black"/>
<path d="M81.6556 25.7536C82.3022 25.7004 82.6104 26.2464 82.6866 26.8068C82.961 28.8336 82.0134 31.8561 80.9458 33.5854C80.6096 34.1299 79.5527 35.6581 78.8235 34.9389C77.9966 34.1242 78.7165 30.8215 79.0204 29.7496C79.3307 28.6575 80.3373 25.8621 81.6556 25.7529V25.7536Z" fill="black"/>
</svg>
