<svg width="173" height="25" viewBox="0 0 173 25" fill="none" xmlns="http://www.w3.org/2000/svg">
<path d="M21.9427 23.9753V0H27.4037V23.9753H21.9427ZM128.099 15.0179C128.099 9.22401 123.604 5.62746 118.343 5.62746C113.082 5.62746 108.588 9.25628 108.588 15.0179C108.588 20.7795 113.082 24.4406 118.343 24.4406C123.604 24.4406 128.099 20.7778 128.099 15.0179ZM122.704 15.0179C122.704 18.0473 120.673 19.7471 118.309 19.7471C115.945 19.7471 113.915 18.049 113.915 15.0179C113.915 11.9868 115.945 10.3227 118.309 10.3227C120.673 10.3227 122.704 11.9545 122.704 15.0179ZM19.7454 17.0828C19.7454 14.3862 18.3461 12.3213 15.8499 11.3891C18.2137 10.09 19.0457 8.39195 19.0457 6.395C19.0457 2.89694 16.5156 0 10.8559 0.0339618H0V24.0093H11.3211C17.0148 23.9753 19.7454 21.1463 19.7454 17.0828ZM13.2519 7.09291C13.2519 8.72477 12.2194 9.65702 10.2225 9.65702H5.69369V4.66295H10.2225C12.0547 4.66295 13.2519 5.46275 13.2519 7.09291ZM13.7528 16.716C13.7528 18.2816 12.6541 19.314 10.6232 19.314H5.69539V14.1196H10.6232C12.5879 14.1196 13.7528 15.1181 13.7528 16.7177V16.716ZM67.2952 10.523C65.7975 7.39347 62.999 5.66142 58.7708 5.66142C53.7767 5.66142 49.3142 8.791 49.3142 15.0179C49.3142 21.2448 53.2435 24.4406 58.7046 24.4406C62.5338 24.4406 65.7635 22.9089 67.2952 19.6129L62.9006 17.3494C62.1008 18.8148 60.8696 19.7471 58.905 19.7471C56.3748 19.7471 54.7429 17.9488 54.7429 15.0179C54.7429 12.087 56.6074 10.3227 58.8727 10.3227C60.637 10.3227 61.97 11.1225 62.8021 12.8528L67.2969 10.5214L67.2952 10.523ZM147.778 10.523C146.28 7.39347 143.482 5.66142 139.253 5.66142C134.259 5.66142 129.797 8.791 129.797 15.0179C129.797 21.2448 133.726 24.4406 139.187 24.4406C143.016 24.4406 146.246 22.9089 147.778 19.6129L143.383 17.3494C142.583 18.8148 141.352 19.7471 139.387 19.7471C136.857 19.7471 135.225 17.9488 135.225 15.0179C135.225 12.087 137.09 10.3227 139.355 10.3227C141.12 10.3227 142.453 11.1225 143.285 12.8528L147.779 10.5214L147.778 10.523ZM101.992 23.9753L97.4295 15.9179H93.9331V23.9753H88.3056V0H98.4619C103.955 0 107.786 2.63034 107.786 7.79252C107.786 11.0885 106.154 13.42 103.257 14.8515L108.518 23.9753H101.992ZM93.9671 11.1547H98.163C100.761 11.1547 102.026 9.68929 102.026 7.95894C102.026 5.89406 100.827 4.76314 98.163 4.76314H93.9671V11.1564V11.1547ZM48.4159 23.6747V19.9118C48.1832 19.978 47.8504 20.0442 47.4836 20.0442C46.784 20.0442 46.4172 19.6774 46.4172 19.0458V12.8189C46.4172 8.15761 43.2876 5.69369 38.1255 5.69369C34.7616 5.69369 31.8986 6.9265 30.1003 8.5244L33.1297 11.9206C34.3285 10.8542 35.9264 10.1885 37.4921 10.1885C39.8898 10.1885 41.0224 11.3874 41.0224 13.3521V13.9175C39.8898 13.6509 38.4583 13.3843 36.7262 13.3843C32.3638 13.3843 29.5331 15.4815 29.5331 18.9456C29.5331 22.4097 31.8969 24.3727 35.5597 24.3727C38.0575 24.3727 40.2888 23.3402 41.4537 22.0089C42.1533 23.7732 43.685 24.2402 45.1827 24.2402C46.2151 24.2742 47.414 24.1077 48.4125 23.6747H48.4159ZM41.0564 18.0473C41.0564 19.6791 39.4907 20.7438 37.6924 20.7438C35.9944 20.7438 35.1623 19.8778 35.1623 18.679C35.1623 17.4139 36.0945 16.4816 37.993 16.4816C39.1579 16.4816 40.1903 16.682 41.0564 16.8807V18.0456V18.0473ZM167.29 23.9753L160.863 12.8206L166.89 6.26085H160.829L154.47 13.3198V0.0339618H149.043V24.0093H154.47V19.6808L157.068 16.9163L161.13 24.0093H167.29V23.9753ZM86.8742 23.9753L80.4469 12.8206L86.4734 6.26085H80.3467L74.0536 13.3198V0.0339618H68.6265V24.0093H74.0536V19.6808L76.6517 16.9163L80.7135 24.0093H86.8742V23.9753ZM170.62 20.6453C171.753 20.6453 172.419 21.345 172.419 22.4097C172.419 23.4744 171.753 24.174 170.62 24.174C169.488 24.174 168.822 23.4744 168.822 22.4097C168.822 21.345 169.488 20.6453 170.62 20.6453ZM170.62 23.9413C171.519 23.9413 172.118 23.4081 172.118 22.4097C172.118 21.4112 171.485 20.878 170.62 20.878C169.756 20.878 169.123 21.4112 169.123 22.4097C169.089 23.4421 169.722 23.9413 170.62 23.9413ZM169.921 21.5114H170.653C171.086 21.5114 171.318 21.744 171.318 22.0768C171.318 22.3774 171.186 22.5438 170.952 22.6423L171.284 23.2757H170.952L170.653 22.7102H170.254V23.2757H169.921V21.5114ZM170.254 21.7763V22.4097H170.62C170.853 22.4097 170.987 22.3434 170.987 22.1108C170.987 21.9104 170.887 21.8102 170.654 21.8102H170.255V21.7763H170.254Z" fill="black"/>
</svg>
