<svg width="119" height="37" viewBox="0 0 119 37" fill="none" xmlns="http://www.w3.org/2000/svg">
<path d="M66.0309 0H59.7754V35.8949H66.0309V0Z" fill="#E60010"/>
<path d="M94.9257 23.6075H73.7015C74.1483 28.4302 78.5079 32.3243 83.4572 30.9429C85.5856 30.3486 87.2269 28.7951 88.2606 26.8842H94.3299C92.8733 32.1515 88.2732 36.0061 82.8234 36.5647C71.8152 37.6936 65.2766 26.3339 68.8051 16.5886C71.6469 8.74015 81.2551 5.93186 88.3737 9.86615C93.3819 12.6335 95.4693 18.0423 94.9257 23.6075ZM88.8191 18.8414C88.1824 15.9236 85.4984 13.7178 82.5807 13.2762C78.8549 12.7124 74.9571 15.1394 74.0739 18.8414H88.8191Z" fill="#E60010"/>
<path d="M42.3345 8.13911C54.547 7.19035 62.3917 20.7113 55.2194 30.7052C48.9557 39.4317 35.5122 38.2462 30.8176 28.623C26.4834 19.7394 32.4641 8.90616 42.3352 8.13911H42.3345ZM42.8558 13.7989C36.9577 14.2882 33.369 20.6666 35.8809 26.0166C38.7644 32.1567 47.4395 32.6296 50.9731 26.832C54.6639 20.7783 49.8672 13.2173 42.855 13.7989H42.8558Z" fill="#E60010"/>
<path d="M118.235 16.8297H112.65C112.518 13.2782 108.998 12.5611 106.069 12.818C104.239 12.9781 102.18 14.1182 102.689 16.2526C103.058 17.7964 104.861 18.3854 106.214 18.76C111.813 20.312 119.411 20.3098 118.983 28.1895C118.579 35.6269 110.436 37.2936 104.368 36.3195C99.3336 35.5107 95.9169 32.1744 96.1173 26.8833H101.703C101.794 28.5164 102.426 30.0677 103.868 30.936C106.474 32.5043 113.69 32.3211 113.245 27.9639C113.057 26.1319 110.856 25.6069 109.389 25.1913C104.054 23.681 96.3906 23.2454 96.859 15.8207C97.3401 8.2008 107.148 6.87075 112.872 9.12275C116.142 10.4089 118.281 13.2469 118.236 16.829L118.235 16.8297Z" fill="#E60010"/>
<path d="M28.051 18.8413H22.0188C19.5405 13.0266 11.5356 11.9907 7.57374 16.9445C4.2732 21.0709 5.36866 27.2029 9.97915 29.8012C14.4936 32.3458 19.9426 30.4215 22.1305 25.8415H28.051C26.6733 31.6249 21.5661 35.9807 15.6508 36.5646C0.406673 38.0682 -6.09388 17.5016 7.14926 9.9666C15.3701 5.28909 25.7863 9.74245 28.051 18.8413Z" fill="#E60010"/>
</svg>
