<svg width="110" height="38" viewBox="0 0 110 38" fill="none" xmlns="http://www.w3.org/2000/svg">
<path d="M41.0846 0.852121C42.7249 1.18278 43.4539 3.17978 43.8861 4.55972C44.9692 8.00955 45.4665 12.066 46.3387 15.6461C47.3229 19.6817 48.4373 23.6731 49.549 27.6697C49.9552 27.6306 49.9422 27.2739 50.0489 27.0006C52.5354 20.7128 53.8711 13.1518 56.0295 6.67909C56.4383 4.41131 54.5585 2.83871 53.9726 0.852121H60.3516C61.82 0.852121 63.0672 2.98972 63.5436 4.16917C65.7463 9.63162 67.194 16.8724 69.0035 22.6629C69.2196 23.3529 70.5266 27.878 70.7974 27.9431L71.6748 27.9327C72.4117 18.8668 77.9106 10.4101 75.0596 1.11249H83.0007C83.0528 1.11249 83.6985 0.591756 83.6152 1.45617C83.5709 1.90139 82.3368 3.90099 82.0452 4.58055C80.2825 8.67869 78.9624 12.907 77.7387 17.1978C76.3484 22.0745 75.2575 29.4141 73.2058 33.7544C71.9638 36.3789 67.3502 37.6235 65.3141 35.4624L58.6826 13.4538L58.1385 13.0867L51.3299 33.4889C50.1427 36.7486 44.7401 38.2093 42.6337 35.2281C40.5534 26.597 39.5979 17.2499 37.39 8.70733C36.7183 6.10108 35.7783 3.65625 34.2109 1.46398L34.5702 0.852121C36.4735 1.11509 39.3089 0.495421 41.0794 0.852121H41.0846Z" fill="#093959"/>
<path d="M17.7824 22.9845C19.6935 15.999 26.5307 19.3525 31.5791 17.7772L30.6548 35.2061C30.1966 35.9117 29.0874 36.0913 28.2985 36.2345C14.0332 38.8303 -1.24245 35.995 0.0801986 18.1704C1.18675 3.24368 12.6949 -1.99226 26.4369 0.660861C31.5219 1.64244 29.6707 4.67308 29.7566 8.66448C29.452 9.00555 27.2024 6.17799 26.7572 5.80827C24.177 3.66026 20.7818 2.81408 17.457 3.26711C4.13408 5.07925 3.18896 32.9643 19.2014 34.1932C26.0672 34.7192 24.9112 30.0118 24.3098 25.156C24.2629 24.7863 24.5467 22.9897 23.6354 22.9897H17.7772L17.7824 22.9845Z" fill="#093959"/>
<path d="M109.43 7.62365C108.498 6.91286 108.199 5.68133 107.332 4.90544C104.913 2.7366 100.875 3.15058 97.8755 2.74962C97.4667 2.7366 96.6726 3.55415 96.6726 3.84836V19.0797C97.5813 18.1971 98.24 17.1087 99.3986 16.4682C100.024 16.122 102.172 15.4346 102.791 15.4346H108.389C107.991 17.7518 106.301 19.8556 103.833 20.1212C101.161 20.4102 96.9824 18.8115 96.6596 22.3212C96.4643 24.4276 96.3628 30.7961 96.6856 32.7332C96.8861 33.9335 98.5186 35.2119 98.7139 35.9175C98.8128 36.2742 98.5967 36.7819 98.365 36.7819H87.9504C87.8853 36.7819 87.3281 36.2924 87.4036 35.9878C87.5807 35.2718 88.846 34.5948 89.1819 33.8476C89.4006 33.3659 89.5881 32.2568 89.6376 31.6996C90.2025 25.4456 90.0698 14.6092 89.6532 8.25894C89.4787 5.59801 88.6039 3.34065 87.8176 0.851562H108.256C108.517 0.851562 109.428 1.76284 109.428 2.0232V7.62105L109.43 7.62365Z" fill="#093959"/>
</svg>
