<svg width="185" height="53" viewBox="0 0 185 53" fill="none" xmlns="http://www.w3.org/2000/svg">
<path fill-rule="evenodd" clip-rule="evenodd" d="M84.9114 36.5551C80.5187 36.5551 76.9762 33.0126 76.9762 28.6199C76.9762 24.2272 80.5187 20.6719 84.9114 20.6719C89.304 20.6719 92.8594 24.2272 92.8594 28.6199C92.8594 33.0126 89.3169 36.5551 84.9114 36.5551ZM90.4634 28.6199C90.4634 25.3351 87.9643 22.6685 84.8727 22.6685C81.7811 22.6685 79.2691 25.3351 79.2691 28.6199C79.2691 31.9048 81.7682 34.5584 84.8727 34.5584C87.9772 34.5584 90.4634 31.9048 90.4634 28.6199Z" fill="#002148"/>
<path d="M126.056 36.2605H123.351L117.953 29.1627L114.861 32.2672V36.2605H112.556V16.0877L114.861 14.6836V29.562L123.054 20.9828H125.85L119.46 27.5654L126.056 36.2605Z" fill="#002148"/>
<path d="M129.547 36.2605V16.0877L131.853 14.6836V36.2605H129.547Z" fill="#002148"/>
<path fill-rule="evenodd" clip-rule="evenodd" d="M137.147 23.8666L136.451 21.9729C138.152 21.1743 139.749 20.6719 141.952 20.6719C146.138 20.6719 148.444 22.7716 148.444 26.7649V36.0527H146.241V33.7597C145.146 35.1639 143.446 36.452 140.741 36.452C138.036 36.452 135.047 34.8547 135.047 31.66C135.047 28.4653 137.752 26.7649 141.552 26.7649C143.549 26.7649 144.85 27.0741 146.241 27.3704V26.868C146.241 24.1757 144.541 22.6685 141.746 22.6685C139.942 22.7716 138.551 23.274 137.147 23.8666ZM137.353 31.66C137.353 33.6567 139.144 34.7645 141.14 34.7645C143.948 34.7645 146.241 33.0641 146.241 30.5651V29.0708C145.146 28.7616 143.639 28.4653 141.746 28.4653C138.95 28.4653 137.353 29.7664 137.353 31.66Z" fill="#002148"/>
<path d="M154.344 36.2588H152.038V20.981H154.344V23.6733C155.336 21.9729 156.946 20.6719 159.535 20.6719C163.232 20.6719 165.332 23.1709 165.332 26.7649V36.2588H163.039V27.3704C163.039 24.575 161.545 22.7716 158.84 22.7716C156.135 22.7716 154.344 24.6652 154.344 27.5636V36.2588Z" fill="#002148"/>
<path fill-rule="evenodd" clip-rule="evenodd" d="M181.937 36.2601V33.1685C180.726 34.959 178.935 36.5564 176.127 36.5564C172.43 36.5564 168.836 33.658 168.836 28.5697C168.836 23.4814 172.43 20.583 176.127 20.583C178.935 20.583 180.829 22.0773 181.937 23.7777V15.8811L184.23 14.5801V36.054L181.937 36.2601ZM182.04 28.6212C182.04 25.3363 179.605 22.6827 176.591 22.6827C173.576 22.6827 171.142 25.3363 171.142 28.6212C171.142 31.906 173.576 34.5726 176.591 34.5726C179.605 34.5726 182.04 31.906 182.04 28.6212Z" fill="#002148"/>
<path d="M107.764 32.3685C106.759 33.6567 105.265 34.5584 103.358 34.5584C100.163 34.5584 97.7674 31.8661 97.7674 28.5684C97.7674 25.2707 100.06 22.6685 103.358 22.6685C105.162 22.6685 106.759 23.4672 107.764 24.8713L109.76 23.7764C108.356 21.8699 106.063 20.6719 103.461 20.6719C98.8623 20.6719 95.4615 24.3689 95.4615 28.6714C95.4615 32.974 98.7593 36.5551 103.358 36.5551C106.063 36.5551 108.253 35.3571 109.657 33.4635L107.764 32.3685Z" fill="#002148"/>
<path d="M70.0717 31.9573C70.0717 33.8638 71.0764 34.4564 72.6738 34.4564C73.4725 34.4564 74.0779 34.2632 74.8766 33.9669V35.9635C74.0689 36.359 73.1672 36.5561 72.1714 36.5561C69.7754 36.5561 67.8689 35.3581 67.8689 32.2665V23.0689H65.7692V21.0722H67.8689V17.7745L70.1747 16.4863V21.0722H74.9667V23.0689H70.1747L70.0717 31.9573Z" fill="#002148"/>
<path d="M63.27 30.4632C63.27 27.2685 61.1702 25.465 56.2752 24.3701C51.7794 23.3782 50.3753 22.3734 50.3753 20.0805C50.3753 17.9807 52.2818 16.4864 55.0772 16.4864C57.0739 16.4864 58.7742 16.976 60.4746 18.174L62.5744 16.976C60.2814 15.1854 58.0786 14.3867 55.0772 14.3867C50.9808 14.3867 47.9793 16.8858 47.9793 20.2737C47.9793 23.6616 49.976 25.3749 55.1802 26.4698C59.9722 27.4746 60.874 28.6726 60.874 30.6693C60.874 32.8592 58.8773 34.4565 55.9789 34.4565C53.2737 34.4565 51.3801 33.7609 49.1773 31.9574L47.1807 33.1683C49.7828 35.4613 52.5781 36.5562 55.8759 36.5562C60.2814 36.5562 63.27 34.1602 63.27 30.4632Z" fill="#002148"/>
<mask id="mask0_21181_11184" style="mask-type:luminance" maskUnits="userSpaceOnUse" x="0" y="0" width="41" height="53">
<path d="M40.2838 0H0V52.64H40.2838V0Z" fill="white"/>
</mask>
<g mask="url(#mask0_21181_11184)">
<path d="M30.7823 23.9709L26.6859 24.3702L29.8935 23.3783C29.3911 23.0692 28.8887 22.7729 28.3863 22.5797L26.1835 23.2753L34.8916 18.2772C34.8916 17.7748 34.9818 17.2853 34.9818 16.7829L25.591 22.1803L34.6855 13.9875C34.5825 13.4852 34.4923 13.0858 34.3892 12.5834L24.7923 21.1756L33.1912 9.68504C32.9851 9.2857 32.7919 8.88637 32.4827 8.59009L23.7875 20.583L30.1898 6.19408C29.8935 5.8978 29.5843 5.58864 29.185 5.39541L22.5895 20.1837L26.0934 3.69502C25.694 3.50179 25.2947 3.39874 24.8954 3.29569L21.3915 19.8745V2.70312H20.1935V19.8745L16.7928 3.29569C16.3934 3.39874 15.9941 3.59197 15.5947 3.69502L19.0986 20.1837L12.4902 5.39541C12.194 5.58864 11.7946 5.8978 11.4983 6.19408L17.9908 20.583L9.29557 8.69314C9.10234 9.09248 8.79318 9.38876 8.59995 9.78809L16.9989 21.2786L7.40195 12.6865C7.29889 13.0858 7.19584 13.5882 7.09279 14.0906L16.1873 22.2705L6.79651 16.8859C6.79651 17.3754 6.79651 17.8778 6.89956 18.3802L15.5947 23.3783L7.2989 20.583C7.40195 21.0725 7.59518 21.5749 7.80128 21.9742L15.1954 24.3702L8.69012 23.6746C8.99929 24.177 9.29557 24.5763 9.50168 24.9757L15.0924 25.5682L10.3905 26.1737C10.7899 26.573 11.099 26.9724 11.4983 27.2686L15.1954 26.8693L12.194 27.8741C12.5972 28.1665 12.9965 28.4628 13.392 28.7629L15.5947 28.0673L7.40195 32.7691L5.3924 33.9671V35.3584L16.2904 29.0721L5.89478 38.4629C5.99784 38.8622 6.19106 39.2616 6.29412 39.6609L16.9989 30.064L7.89146 42.5464C8.09756 42.8556 8.39384 43.2549 8.69012 43.5512L17.9908 30.8626L11.2922 45.8441C11.6014 46.0502 12.0007 46.3465 12.297 46.5526L19.0986 31.365L15.5947 47.9439C15.9902 48.0469 16.3896 48.1461 16.7928 48.2401L20.2966 31.5583V48.7425H21.4946V31.4681L24.9855 48.15C25.3887 48.0469 25.7881 47.9439 26.1835 47.8408L22.6926 31.262L29.3911 46.4496C29.7904 46.2435 30.0867 46.0502 30.383 45.754L23.6845 30.7596L32.9851 43.4481C33.2814 43.1518 33.5906 42.8556 33.7838 42.4562L24.6893 29.9609L35.3811 39.5578C35.5872 39.1585 35.6903 38.7592 35.7805 38.3598L25.4879 29.0721L36.3859 35.3584V33.9671L26.1835 28.0673L35.8835 31.262C35.6903 30.7596 35.5872 30.2701 35.3811 29.7677L26.5958 26.8693L34.2862 27.668C33.9899 27.1656 33.6807 26.7662 33.2814 26.3669L26.6859 25.6713L31.9932 25.0659C31.6841 24.6665 31.1817 24.3702 30.7823 23.9709Z" fill="#002148"/>
</g>
<mask id="mask1_21181_11184" style="mask-type:luminance" maskUnits="userSpaceOnUse" x="21" y="22" width="16" height="27">
<path d="M26.289 23.2737L21.5911 25.9699V31.4639L25.0897 48.1458C25.4904 48.0453 25.8897 47.9448 26.289 47.8457L22.7904 31.2643L29.5881 46.4467C29.9887 46.247 30.2875 46.0474 30.5877 45.7485L23.8905 30.7644L33.1872 43.4504C33.4874 43.1515 33.7862 42.8514 33.9872 42.4521L24.8901 29.9658L35.5858 39.555C35.7855 39.1556 35.8859 38.7563 35.9864 38.3569L25.69 29.0666L36.5854 35.3594V33.9617L26.3895 28.0683L36.0856 31.2643C35.8859 30.7644 35.7855 30.2659 35.5858 29.7661L26.7889 26.869L34.487 27.669C34.1868 27.1691 33.8867 26.7698 33.4874 26.3705L26.8893 25.671L32.1876 25.072C31.787 24.6714 31.2872 24.272 30.8878 23.9732L26.7889 24.3725L29.9887 23.3729C29.4889 23.074 28.9891 22.7739 28.4892 22.5742L26.289 23.2737Z" fill="white"/>
</mask>
<g mask="url(#mask1_21181_11184)">
<path d="M9.10229 32.1642L30.8853 15.2891L48.8812 38.5535L27.1883 55.4415L9.10229 32.1642Z" fill="#002148"/>
</g>
</svg>
