<svg width="63" height="63" viewBox="0 0 63 63" fill="none" xmlns="http://www.w3.org/2000/svg">
<path d="M39.0117 0.83059C37.6182 0.464091 36.1856 0.191885 34.7245 0.0210892C34.4308 -0.0127141 34.1354 0.108266 33.9521 0.341331C33.0089 1.54224 32.1831 2.81965 31.4926 4.16289C31.3556 4.42976 30.9676 4.42976 30.8288 4.16289C30.1347 2.81431 29.3054 1.52979 28.3551 0.325319C28.1736 0.0940333 27.8799 -0.0269471 27.5881 0.0050771C26.1181 0.168756 24.6783 0.435625 23.2759 0.798566C23.1959 0.818136 23.1709 0.917767 23.2297 0.976478C26.8353 4.52939 29.026 9.16578 29.026 14.2381C29.026 14.5138 29.0171 14.7878 29.0047 15.06C28.994 15.2593 29.1453 15.4016 29.3446 15.3785C29.9158 15.3144 30.4942 15.2788 31.0815 15.2788C31.724 15.2788 32.3558 15.3198 32.9769 15.3945C33.178 15.4194 33.3292 15.2771 33.3186 15.076C33.3043 14.7985 33.2954 14.5192 33.2954 14.2363C33.2954 9.18001 35.4719 4.55607 39.0579 1.0085C39.1167 0.951571 39.09 0.85194 39.0117 0.83059Z" fill="#C4F5B2"/>
<path d="M23.2758 61.4388C24.6693 61.8053 26.1019 62.0775 27.563 62.2483C27.8567 62.2821 28.1521 62.1611 28.3354 61.9281C29.2786 60.7271 30.1044 59.4497 30.7949 58.1065C30.9319 57.8396 31.3199 57.8396 31.4587 58.1065C32.1528 59.4551 32.9821 60.7396 33.9324 61.9441C34.114 62.1754 34.4076 62.2963 34.6995 62.2643C36.1695 62.1006 37.6092 61.8338 39.0116 61.4708C39.0917 61.4513 39.1166 61.3516 39.0578 61.2929C35.4523 57.74 33.2615 53.1036 33.2615 48.0313C33.2615 47.7556 33.2704 47.4816 33.2829 47.2094C33.2935 47.0101 33.1423 46.8678 32.9429 46.8909C32.3717 46.955 31.7933 46.9905 31.206 46.9905C30.5635 46.9905 29.9318 46.9496 29.3107 46.8749C29.1096 46.85 28.9583 46.9923 28.969 47.1934C28.9832 47.4709 28.9921 47.7502 28.9921 48.0331C28.9921 53.0894 26.8156 57.7133 23.2296 61.2609C23.1708 61.3178 23.1975 61.4174 23.2758 61.4388Z" fill="#C4F5B2"/>
<path d="M58.1411 15.2689C57.4132 14.0253 56.5946 12.8191 55.6816 11.6662C55.4983 11.4349 55.2029 11.3122 54.9093 11.3478C53.393 11.5292 51.9052 11.8495 50.4672 12.3103C50.1807 12.4028 49.9066 12.1288 49.9974 11.8406C50.4601 10.3959 50.7822 8.90146 50.9638 7.37853C50.9994 7.08675 50.8783 6.7932 50.647 6.60995C49.492 5.68658 48.2854 4.85751 47.0378 4.12274C46.9667 4.08182 46.8795 4.13341 46.8795 4.21525C46.9168 9.27508 45.1852 14.1036 41.5974 17.6903C41.4034 17.8843 41.2041 18.0728 41.0012 18.2561C40.8518 18.3895 40.8589 18.5977 41.0155 18.7222C41.464 19.0798 41.8982 19.4641 42.3128 19.8804C42.7667 20.3341 43.1849 20.8109 43.5711 21.3037C43.6956 21.4638 43.9039 21.471 44.0391 21.3197C44.226 21.1134 44.4164 20.9088 44.6157 20.7095C48.1911 17.1352 53.0015 15.4042 58.0486 15.4291C58.1304 15.4291 58.1821 15.3419 58.1411 15.2707V15.2689Z" fill="#C4F5B2"/>
<path d="M4.14642 47.0025C4.8743 48.2461 5.69294 49.4523 6.60591 50.6052C6.78921 50.8365 7.08464 50.9593 7.37828 50.9237C8.89455 50.7422 10.3823 50.422 11.8203 49.9612C12.1068 49.8686 12.3809 50.1426 12.2901 50.4309C11.8274 51.8755 11.5053 53.37 11.3238 54.8929C11.2882 55.1847 11.4092 55.4782 11.6406 55.6615C12.7956 56.5848 14.0022 57.4139 15.2497 58.1487C15.3209 58.1896 15.4081 58.138 15.4081 58.0562C15.3707 52.9963 17.1023 48.1678 20.6901 44.5811C20.8841 44.3872 21.0834 44.1986 21.2863 44.0153C21.4358 43.8819 21.4287 43.6737 21.2721 43.5492C20.8236 43.1916 20.3894 42.8073 19.9747 42.391C19.5209 41.9373 19.1027 41.4605 18.7165 40.9677C18.5919 40.8076 18.3837 40.8005 18.2484 40.9517C18.0616 41.1581 17.8711 41.3627 17.6718 41.5619C14.0965 45.1362 9.28607 46.8673 4.23896 46.8424C4.1571 46.8424 4.10549 46.9295 4.14642 47.0007V47.0025Z" fill="#C4F5B2"/>
<path d="M61.4566 39C61.8232 37.6069 62.0955 36.1747 62.2664 34.7141C62.3002 34.4205 62.1791 34.1252 61.946 33.9419C60.7447 32.999 59.4669 32.1735 58.1233 31.4832C57.8564 31.3462 57.8564 30.9583 58.1233 30.8196C59.4723 30.1257 60.7572 29.2966 61.962 28.3466C62.1934 28.1651 62.3144 27.8716 62.2824 27.5798C62.1186 26.1102 61.8517 24.6709 61.4886 23.269C61.4691 23.1889 61.3694 23.164 61.3107 23.2227C57.7567 26.8272 53.1189 29.0173 48.0451 29.0173C47.7693 29.0173 47.4952 29.0084 47.2229 28.996C47.0236 28.9853 46.8812 29.1365 46.9043 29.3358C46.9684 29.9069 47.004 30.4851 47.004 31.0722C47.004 31.7145 46.9631 32.346 46.8883 32.967C46.8634 33.168 47.0058 33.3192 47.2069 33.3086C47.4845 33.2943 47.7639 33.2854 48.0469 33.2854C53.1047 33.2854 57.73 35.4613 61.2786 39.0462C61.3356 39.1049 61.4352 39.0783 61.4566 39Z" fill="#C4F5B2"/>
<path d="M0.83084 23.2685C0.46423 24.6615 0.191943 26.0937 0.0210955 27.5544C-0.012718 27.848 0.108299 28.1433 0.341434 28.3265C1.5427 29.2695 2.8205 30.095 4.16414 30.7853C4.43109 30.9223 4.43109 31.3101 4.16414 31.4489C2.81516 32.1428 1.53025 32.9718 0.325417 33.9219C0.0940615 34.1034 -0.0269552 34.3969 0.00507863 34.6887C0.168807 36.1582 0.435756 37.5976 0.798806 38.9995C0.818382 39.0796 0.918043 39.1045 0.976772 39.0458C4.53075 35.4413 9.16854 33.2512 14.2423 33.2512C14.5182 33.2512 14.7923 33.2601 15.0645 33.2725C15.2639 33.2832 15.4062 33.132 15.3831 32.9327C15.319 32.3616 15.2834 31.7834 15.2834 31.1963C15.2834 30.554 15.3244 29.9224 15.3991 29.3015C15.424 29.1005 15.2817 28.9492 15.0806 28.9599C14.8029 28.9741 14.5235 28.983 14.2406 28.983C9.18277 28.983 4.55744 26.8072 1.00881 23.2222C0.951857 23.1635 0.852196 23.1902 0.83084 23.2685Z" fill="#C4F5B2"/>
<path d="M47.0145 58.1253C48.2584 57.3977 49.4651 56.5793 50.6183 55.6666C50.8496 55.4833 50.9724 55.188 50.9368 54.8944C50.7553 53.3786 50.435 51.8913 49.974 50.4537C49.8815 50.1673 50.1556 49.8933 50.4439 49.9841C51.8889 50.4466 53.3839 50.7686 54.9072 50.9501C55.1991 50.9857 55.4928 50.8647 55.6761 50.6334C56.5997 49.4788 57.429 48.2725 58.164 47.0254C58.205 46.9542 58.1533 46.867 58.0715 46.867C53.0101 46.9044 48.1801 45.1733 44.5924 41.5866C44.3984 41.3927 44.2097 41.1934 44.0264 40.9906C43.8929 40.8411 43.6847 40.8483 43.5601 41.0048C43.2024 41.4532 42.818 41.8873 42.4016 42.3018C41.9478 42.7555 41.4708 43.1736 40.9779 43.5596C40.8177 43.6842 40.8106 43.8923 40.9618 44.0276C41.1683 44.2144 41.373 44.4047 41.5723 44.604C45.1476 48.1782 46.8792 52.9872 46.8543 58.0328C46.8543 58.1146 46.9415 58.1662 47.0127 58.1253H47.0145Z" fill="#C4F5B2"/>
<path d="M15.2727 4.14617C14.0287 4.87383 12.8221 5.69223 11.6689 6.60492C11.4375 6.78817 11.3147 7.0835 11.3503 7.37706C11.5318 8.89287 11.8522 10.3802 12.3131 11.8178C12.4056 12.1042 12.1316 12.3782 11.8433 12.2874C10.3982 11.8249 8.90327 11.5028 7.37988 11.3214C7.08802 11.2858 6.79437 11.4068 6.61107 11.6381C5.68743 12.7927 4.8581 13.999 4.12311 15.2461C4.08217 15.3173 4.13378 15.4045 4.21565 15.4045C9.27699 15.3671 14.107 17.0982 17.6948 20.6849C17.8888 20.8788 18.0774 21.0781 18.2607 21.2809C18.3942 21.4304 18.6024 21.4232 18.727 21.2667C19.0847 20.8183 19.4691 20.3842 19.8855 19.9697C20.3393 19.516 20.8163 19.0979 21.3093 18.7119C21.4694 18.5873 21.4765 18.3792 21.3253 18.2439C21.1188 18.0571 20.9142 17.8668 20.7149 17.6675C17.1395 14.0933 15.4079 9.28428 15.4328 4.23869C15.4328 4.15685 15.3456 4.10525 15.2744 4.14617H15.2727Z" fill="#C4F5B2"/>
</svg>
