<svg width="72" height="72" viewBox="0 0 72 72" fill="none" xmlns="http://www.w3.org/2000/svg">
<path d="M45.0947 0.960393C43.4839 0.536618 41.8279 0.221872 40.139 0.024385C39.7995 -0.0147011 39.458 0.125186 39.2462 0.394674C38.1559 1.78326 37.2013 3.2603 36.4032 4.81345C36.2448 5.12203 35.7963 5.12203 35.6358 4.81345C34.8336 3.25413 33.8749 1.76886 32.7764 0.376159C32.5666 0.108729 32.2271 -0.0311583 31.8898 0.00587054C30.1905 0.195129 28.5263 0.503703 26.9053 0.923364C26.8127 0.945993 26.7839 1.06119 26.8518 1.12908C31.0196 5.23723 33.5519 10.5982 33.5519 16.4632C33.5519 16.782 33.5417 17.0988 33.5273 17.4136C33.5149 17.644 33.6898 17.8085 33.9202 17.7818C34.5805 17.7077 35.2491 17.6666 35.928 17.6666C36.6706 17.6666 37.4009 17.7139 38.1188 17.8003C38.3513 17.8291 38.5262 17.6645 38.5138 17.4321C38.4974 17.1112 38.4871 16.7882 38.4871 16.4611C38.4871 10.6146 41.003 5.26809 45.1482 1.16611C45.216 1.10028 45.1852 0.985079 45.0947 0.960393Z" fill="#002148"/>
<path d="M26.9047 71.0404C28.5155 71.4642 30.1715 71.779 31.8604 71.9765C32.1999 72.0155 32.5413 71.8757 32.7532 71.6062C33.8435 70.2176 34.798 68.7405 35.5962 67.1874C35.7546 66.8788 36.2031 66.8788 36.3635 67.1874C37.1658 68.7467 38.1245 70.232 39.223 71.6247C39.4328 71.8921 39.7723 72.032 40.1096 71.995C41.8088 71.8057 43.4731 71.4971 45.0941 71.0775C45.1867 71.0549 45.2155 70.9396 45.1476 70.8718C40.9798 66.7636 38.4474 61.4027 38.4474 55.5377C38.4474 55.2188 38.4577 54.902 38.4721 54.5873C38.4845 54.3569 38.3096 54.1923 38.0792 54.2191C37.4189 54.2931 36.7503 54.3343 36.0714 54.3343C35.3288 54.3343 34.5985 54.2869 33.8805 54.2005C33.6481 54.1717 33.4732 54.3363 33.4856 54.5688C33.502 54.8897 33.5123 55.2127 33.5123 55.5397C33.5123 61.3862 30.9964 66.7328 26.8512 70.8347C26.7833 70.9006 26.8142 71.0158 26.9047 71.0404Z" fill="#002148"/>
<path d="M67.2067 17.6547C66.3653 16.2167 65.419 14.822 64.3637 13.4889C64.1518 13.2215 63.8103 13.0796 63.4709 13.1207C61.7182 13.3305 59.9984 13.7008 58.3362 14.2336C58.005 14.3406 57.6882 14.0238 57.7931 13.6905C58.328 12.0201 58.7003 10.2921 58.9101 8.53118C58.9513 8.19381 58.8114 7.85437 58.544 7.64249C57.2089 6.57482 55.8141 5.61618 54.372 4.76658C54.2898 4.71926 54.189 4.77892 54.189 4.87355C54.2322 10.7241 52.2305 16.3072 48.0833 20.4545C47.8591 20.6787 47.6287 20.8968 47.3942 21.1087C47.2213 21.2629 47.2296 21.5036 47.4106 21.6476C47.929 22.0611 48.431 22.5055 48.9103 22.9868C49.4349 23.5114 49.9183 24.0627 50.3647 24.6326C50.5087 24.8177 50.7494 24.8259 50.9057 24.6511C51.1217 24.4125 51.3418 24.1759 51.5722 23.9455C55.7051 19.8126 61.2656 17.811 67.0997 17.8398C67.1943 17.8398 67.254 17.739 67.2067 17.6567V17.6547Z" fill="#002148"/>
<path d="M4.79294 54.3469C5.63432 55.7849 6.58062 57.1796 7.63594 58.5127C7.84783 58.7801 8.18932 58.9221 8.52875 58.8809C10.2814 58.6711 12.0012 58.3008 13.6634 57.768C13.9946 57.661 14.3114 57.9778 14.2065 58.3111C13.6716 59.9815 13.2993 61.7095 13.0895 63.4704C13.0483 63.8078 13.1882 64.1473 13.4556 64.3591C14.7907 65.4268 16.1855 66.3854 17.6276 67.235C17.7099 67.2824 17.8107 67.2227 17.8107 67.1281C17.7675 61.2775 19.7691 55.6944 23.9163 51.5471C24.1405 51.3229 24.3709 51.1049 24.6055 50.893C24.7783 50.7387 24.77 50.498 24.589 50.354C24.0706 49.9405 23.5686 49.4962 23.0893 49.0148C22.5648 48.4902 22.0813 47.9389 21.6349 47.3691C21.4909 47.1839 21.2502 47.1757 21.0939 47.3505C20.8779 47.5892 20.6578 47.8257 20.4274 48.0561C16.2945 52.189 10.734 54.1906 4.89992 54.1618C4.80529 54.1618 4.74563 54.2626 4.79294 54.3449V54.3469Z" fill="#002148"/>
<path d="M71.0395 45.0947C71.4632 43.4839 71.778 41.8279 71.9755 40.139C72.0146 39.7995 71.8747 39.458 71.6052 39.2462C70.2166 38.1559 68.7396 37.2013 67.1864 36.4032C66.8778 36.2448 66.8778 35.7963 67.1864 35.6358C68.7457 34.8336 70.231 33.8749 71.6237 32.7764C71.8911 32.5666 72.031 32.2271 71.994 31.8898C71.8047 30.1905 71.4962 28.5263 71.0765 26.9053C71.0539 26.8127 70.9387 26.7839 70.8708 26.8518C66.7626 31.0196 61.4017 33.5519 55.5367 33.5519C55.2179 33.5519 54.9011 33.5417 54.5863 33.5273C54.3559 33.5149 54.1913 33.6898 54.2181 33.9202C54.2921 34.5805 54.3333 35.2491 54.3333 35.928C54.3333 36.6706 54.286 37.4009 54.1996 38.1188C54.1708 38.3513 54.3353 38.5262 54.5678 38.5138C54.8887 38.4974 55.2117 38.4871 55.5388 38.4871C61.3852 38.4871 66.7318 41.003 70.8338 45.1482C70.8996 45.216 71.0148 45.1852 71.0395 45.0947Z" fill="#002148"/>
<path d="M0.960393 26.9047C0.536618 28.5155 0.221872 30.1715 0.024385 31.8604C-0.0147011 32.1999 0.125186 32.5413 0.394674 32.7532C1.78326 33.8435 3.2603 34.798 4.81345 35.5962C5.12203 35.7546 5.12203 36.2031 4.81345 36.3635C3.25413 37.1658 1.76886 38.1245 0.376159 39.223C0.108729 39.4328 -0.0311583 39.7723 0.00587054 40.1096C0.195129 41.8088 0.503703 43.4731 0.923364 45.0941C0.945993 45.1867 1.06119 45.2155 1.12908 45.1476C5.23723 40.9798 10.5982 38.4474 16.4632 38.4474C16.782 38.4474 17.0988 38.4577 17.4136 38.4721C17.644 38.4845 17.8085 38.3096 17.7818 38.0792C17.7077 37.4189 17.6666 36.7503 17.6666 36.0714C17.6666 35.3288 17.7139 34.5985 17.8003 33.8805C17.8291 33.6481 17.6645 33.4732 17.4321 33.4856C17.1112 33.502 16.7882 33.5123 16.4611 33.5123C10.6146 33.5123 5.26809 30.9964 1.16611 26.8512C1.10028 26.7833 0.985079 26.8142 0.960393 26.9047Z" fill="#002148"/>
<path d="M54.346 67.2086C55.7839 66.3672 57.1787 65.4209 58.5117 64.3656C58.7791 64.1537 58.9211 63.8122 58.8799 63.4728C58.6701 61.7201 58.2998 60.0003 57.767 58.3381C57.66 58.0069 57.9769 57.6901 58.3101 57.795C59.9805 58.3299 61.7085 58.7023 63.4695 58.9121C63.8068 58.9532 64.1463 58.8133 64.3582 58.5459C65.4258 57.2108 66.3845 55.8161 67.2341 54.374C67.2814 54.2917 67.2217 54.1909 67.1271 54.1909C61.2765 54.2341 55.6934 52.2325 51.5462 48.0853C51.3219 47.861 51.1039 47.6306 50.892 47.3961C50.7377 47.2233 50.497 47.2315 50.353 47.4126C49.9395 47.931 49.4952 48.4329 49.0138 48.9122C48.4892 49.4368 47.9379 49.9202 47.3681 50.3666C47.1829 50.5106 47.1747 50.7513 47.3496 50.9077C47.5882 51.1237 47.8248 51.3438 48.0552 51.5742C52.188 55.707 54.1896 61.2675 54.1608 67.1016C54.1608 67.1963 54.2616 67.2559 54.3439 67.2086H54.346Z" fill="#002148"/>
<path d="M17.6547 4.79392C16.2167 5.6353 14.822 6.58159 13.4889 7.63692C13.2215 7.8488 13.0796 8.19029 13.1207 8.52972C13.3305 10.2824 13.7008 12.0022 14.2336 13.6644C14.3406 13.9956 14.0238 14.3124 13.6905 14.2075C12.0201 13.6726 10.2921 13.3003 8.53118 13.0904C8.19381 13.0493 7.85437 13.1892 7.64249 13.4566C6.57482 14.7917 5.61618 16.1865 4.76658 17.6285C4.71926 17.7108 4.77892 17.8116 4.87355 17.8116C10.7241 17.7684 16.3072 19.77 20.4545 23.9173C20.6787 24.1415 20.8968 24.3719 21.1087 24.6064C21.2629 24.7792 21.5036 24.771 21.6476 24.59C22.0611 24.0716 22.5055 23.5696 22.9868 23.0903C23.5114 22.5657 24.0627 22.0823 24.6326 21.6359C24.8177 21.4919 24.8259 21.2512 24.6511 21.0949C24.4125 20.8789 24.1759 20.6587 23.9455 20.4283C19.8126 16.2955 17.811 10.735 17.8398 4.90089C17.8398 4.80626 17.739 4.74661 17.6567 4.79392H17.6547Z" fill="#002148"/>
</svg>
