<svg width="64" height="64" viewBox="0 0 64 64" fill="none" xmlns="http://www.w3.org/2000/svg">
<path d="M59.4338 44.154C50.6575 41.9241 44.6402 38.6538 40.9896 36.1355C40.7141 35.9442 40.4482 35.7563 40.1921 35.5715C37.459 33.5912 37.459 29.5301 40.1921 27.5498C40.4482 27.365 40.7141 27.177 40.9896 26.9858C44.6402 24.4675 50.6575 21.2004 59.4306 18.9673C59.9461 18.8344 60.2087 18.2575 59.9753 17.7778C59.4987 16.799 58.9735 15.8494 58.4029 14.9321C58.3121 14.7895 58.137 14.7182 57.9717 14.7636C52.5833 16.154 48.1255 17.9269 44.4878 19.7711C43.7649 20.1373 42.9965 19.3692 43.3628 18.6464C45.2076 15.0099 46.9778 10.5534 48.3686 5.1699C48.4108 5.0046 48.3427 4.82958 48.2 4.73883C47.2825 4.1684 46.3326 3.64334 45.3535 3.16689C44.8736 2.93353 44.2966 3.19606 44.1636 3.7114C41.9331 12.4851 38.6618 18.5006 36.1427 22.1533C35.9514 22.4288 35.7634 22.6946 35.5786 22.9506C33.5977 25.6829 29.5353 25.6829 27.5544 22.9506C27.3696 22.6946 27.1816 22.4288 26.9903 22.1533C24.4712 18.5006 21.1999 12.4851 18.9694 3.71464C18.8365 3.19931 18.2594 2.93678 17.7795 3.17014C16.8004 3.64658 15.8505 4.17164 14.933 4.74531C14.7903 4.83607 14.719 5.01109 14.7644 5.17638C16.1553 10.5631 17.9287 15.0196 19.7734 18.6562C20.1398 19.3789 19.3714 20.1471 18.6484 19.7808C15.0108 17.9366 10.5529 16.167 5.16784 14.7766C5.0025 14.7344 4.82742 14.8025 4.73664 14.9483C4.16604 15.8656 3.64082 16.8152 3.16423 17.794C2.9308 18.2737 3.19341 18.8506 3.7089 18.9835C12.482 21.2134 18.5025 24.4837 22.1531 27.002C22.4287 27.1932 22.6945 27.3812 22.9507 27.566C25.6838 29.5463 25.6838 33.6074 22.9507 35.5877C22.6945 35.7725 22.4287 35.9604 22.1531 36.1517C18.4993 38.67 12.4852 41.9371 3.71215 44.1702C3.19666 44.3031 2.93405 44.88 3.16748 45.3597C3.64406 46.3385 4.16928 47.2881 4.73989 48.2054C4.83067 48.348 5.00574 48.4193 5.17108 48.3739C10.5594 46.9835 15.0173 45.2106 18.6517 43.3664C19.3747 43.0001 20.143 43.7683 19.7767 44.4911C17.9319 48.1276 16.1617 52.5841 14.7709 57.9676C14.7287 58.1329 14.7968 58.3079 14.9395 58.3986C15.857 58.9691 16.8069 59.4941 17.786 59.9706C18.2659 60.2039 18.843 59.9414 18.9759 59.4261C21.2064 50.6524 24.4777 44.6369 26.9968 40.9842C27.1848 40.7087 27.3729 40.4429 27.5609 40.1869C29.5418 37.4546 33.6042 37.4546 35.5851 40.1869C35.7699 40.4429 35.9579 40.7087 36.1492 40.9842C38.6683 44.6369 41.9396 50.6524 44.1701 59.4228C44.303 59.9382 44.8801 60.2007 45.36 59.9674C46.3391 59.4909 47.289 58.9658 48.2065 58.3922C48.3492 58.3014 48.4205 58.1264 48.3751 57.9611C46.9842 52.5744 45.2108 48.1179 43.3661 44.4813C42.9997 43.7586 43.7681 42.9904 44.4911 43.3567C48.1287 45.2009 52.5866 46.9705 57.9717 48.3609C58.137 48.4031 58.3121 48.335 58.4029 48.1892C58.9735 47.2719 59.4987 46.3223 59.9753 45.3435C60.2087 44.8638 59.9461 44.2869 59.4306 44.154H59.4338ZM33.7338 32.379C33.7338 32.8652 33.3383 33.2606 32.852 33.2606H30.3037C29.8174 33.2606 29.4219 32.8652 29.4219 32.379V29.8315C29.4219 29.3453 29.8174 28.9499 30.3037 28.9499H32.852C33.3383 28.9499 33.7338 29.3453 33.7338 29.8315V32.379Z" fill="#C4F5B2"/>
<path d="M30.2616 16.7209H32.8909C33.3545 16.7209 33.7339 16.3449 33.7339 15.8782V0.871859C33.7339 0.418103 33.374 0.0486167 32.9201 0.02917C32.4727 0.00972333 32.0253 0 31.5746 0C31.124 0 30.6766 0.00972333 30.2292 0.02917C29.7753 0.0486167 29.4154 0.418103 29.4154 0.871859V15.8782C29.4154 16.3417 29.7915 16.7209 30.2583 16.7209H30.2616Z" fill="#C4F5B2"/>
<path d="M32.891 46.4131H30.2616C29.798 46.4131 29.4187 46.7891 29.4187 47.2558V62.2621C29.4187 62.7159 29.7786 63.0854 30.2325 63.1048C30.6799 63.1243 31.1273 63.134 31.5779 63.134C32.0286 63.134 32.476 63.1243 32.9234 63.1048C33.3773 63.0854 33.7372 62.7159 33.7372 62.2621V47.2558C33.7372 46.7923 33.3611 46.4131 32.8942 46.4131H32.891Z" fill="#C4F5B2"/>
<path d="M63.1331 30.4625C63.1331 30.4625 63.1331 30.4561 63.1331 30.4528C63.1331 30.3718 63.1266 30.294 63.1234 30.213C63.1039 29.7625 62.7311 29.4092 62.2804 29.4092H47.2696C46.806 29.4092 46.4266 29.7851 46.4266 30.2519V32.8804C46.4266 33.3439 46.8027 33.7231 47.2696 33.7231H62.2804C62.7311 33.7231 63.1039 33.3698 63.1234 32.9193C63.1266 32.8383 63.1299 32.7605 63.1331 32.6795C63.1331 32.6762 63.1331 32.673 63.1331 32.6697C63.1461 32.3035 63.1558 31.9372 63.1558 31.5678C63.1558 31.1983 63.1461 30.832 63.1331 30.4658V30.4625Z" fill="#C4F5B2"/>
<path d="M16.7259 32.8804V30.2519C16.7259 29.7884 16.3498 29.4092 15.883 29.4092H0.875363C0.424713 29.4092 0.0518733 29.7625 0.0324208 30.213C0.0291788 30.294 0.0259367 30.3718 0.0226946 30.4528C0.0226946 30.4561 0.0226946 30.4593 0.0226946 30.4625C0.00972625 30.8288 0 31.195 0 31.5645C0 31.934 0.00972625 32.3003 0.0226946 32.6665C0.0226946 32.6697 0.0226946 32.673 0.0226946 32.6762C0.0226946 32.7572 0.0291788 32.835 0.0324208 32.9161C0.0518733 33.3666 0.424713 33.7199 0.875363 33.7199H15.8862C16.3498 33.7199 16.7292 33.3439 16.7292 32.8772L16.7259 32.8804Z" fill="#C4F5B2"/>
</svg>
