<svg width="58" height="58" viewBox="0 0 58 58" fill="none" xmlns="http://www.w3.org/2000/svg">
<path d="M28.75 0.5C44.348 0.5 57 13.2558 57 29C57 44.7442 44.348 57.5 28.75 57.5C13.152 57.5 0.5 44.7442 0.5 29C0.5 13.2558 13.152 0.500001 28.75 0.5Z" stroke="#F5F5F7"/>
<g clip-path="url(#clip0_21261_1333)">
<path d="M39.1074 42.8704H17.8904C17.6837 42.7973 17.4667 42.785 17.2475 42.7221C16.01 42.3669 15.0033 41.3787 14.6498 40.1497C14.5877 39.9327 14.5731 39.7171 14.5 39.5131V18.503C14.7535 16.7032 16.1846 15.3005 18.0278 15.1464C25.1943 15.2036 32.3843 15.0278 39.5369 15.2354C41.1777 15.6188 42.3846 17.0171 42.5007 18.6903L42.4978 39.3764C42.378 41.119 40.876 42.6989 39.1081 42.8696L39.1074 42.8704ZM23.8867 24.3863C26.09 22.2031 22.766 18.8328 20.5138 21.0189C18.2615 23.205 21.6688 26.5847 23.8867 24.3863ZM29.4285 27.4376V26.5442C29.4285 26.3344 29.1889 26.1087 28.9646 26.0826C28.4408 26.0226 26.6211 26.0089 26.1228 26.087C25.9446 26.1152 25.7977 26.2498 25.7459 26.4176L25.7517 37.3321C25.8226 37.544 26.0111 37.6475 26.2273 37.6728C26.8037 37.7408 28.21 37.7285 28.801 37.6735C29.1597 37.6403 29.3408 37.5332 29.3759 37.1599C29.5527 35.2422 28.9157 31.4639 29.8763 29.9123C30.5886 28.7628 32.4171 28.7028 33.0666 29.926C33.8139 31.3337 33.2536 35.3732 33.4172 37.1599C33.4465 37.476 33.6159 37.6345 33.9381 37.6728C34.5372 37.7437 36.007 37.73 36.6214 37.6743C36.9224 37.6468 37.151 37.4645 37.1941 37.1585C36.9114 33.1531 38.7852 25.0446 32.0804 25.9221C30.9685 26.0675 30.086 26.5384 29.4278 27.4376H29.4285ZM20.7198 26.0978C20.5006 26.1897 20.3779 26.3626 20.3494 26.5977L20.3742 37.2431C20.44 37.484 20.6292 37.633 20.8754 37.6677C21.2889 37.7256 23.2124 37.7365 23.5923 37.6605C23.9268 37.5932 24.0583 37.254 24.0715 36.9436L24.0452 26.6237C23.9999 26.3662 23.8823 26.1456 23.6018 26.0884L20.7205 26.0986L20.7198 26.0978Z" fill="#F5F5F7"/>
</g>
<defs>
<clipPath id="clip0_21261_1333">
<rect width="28" height="27.7391" fill="white" transform="translate(14.5 15.1309)"/>
</clipPath>
</defs>
</svg>
