<svg width="98" height="103" viewBox="0 0 98 103" fill="none" xmlns="http://www.w3.org/2000/svg">
<g clip-path="url(#clip0_21261_1330)">
<path d="M81.5922 94.6348H76.2152C75.4111 94.6348 74.7578 95.2934 74.7578 96.1039V98.8143C74.7578 101.126 76.6172 102.994 78.9037 102.994C81.1965 102.994 83.0496 101.119 83.0496 98.8143V96.1039C83.0496 95.2934 82.3963 94.6348 81.5922 94.6348Z" fill="#AAD2FF"/>
<path d="M46.0759 6.75057C49.5748 21.3472 55.178 28.7374 62.7662 28.7374C68.3506 28.7374 72.886 24.6845 76.2843 16.6738C85.8199 24.7605 91.4043 36.6912 91.4043 49.3944C91.4043 62.8322 85.2357 75.2948 74.7453 83.3689C65.9008 70.4314 51.1703 62.5346 35.4599 62.5346C26.9106 62.5346 18.6565 64.8017 11.3698 69.1142C8.23524 63.0539 6.59573 56.3033 6.59573 49.3944C6.59573 45.4112 7.13595 41.4976 8.19755 37.7171C16.0873 35.3423 25.2083 29.377 33.4184 21.1003C37.8846 16.5978 41.773 11.7027 44.7379 6.85822C45.1839 6.8139 45.6299 6.7759 46.0759 6.74424M49.0031 0C46.7166 0 44.4678 0.158315 42.2629 0.468614C41.283 0.601599 40.4161 1.17153 39.9199 2.03277C37.2376 6.70624 33.4435 11.6837 28.7511 16.4078C19.8563 25.3748 10.0758 31.1121 3.10313 32.0684C1.09929 37.4574 0 43.2961 0 49.4007C0 59.0453 2.74508 68.044 7.48773 75.6494C8.09705 76.631 9.14608 77.1693 10.2077 77.1693C10.8296 77.1693 11.464 76.9856 12.0168 76.593C18.6628 71.9258 26.7473 69.1838 35.4599 69.1838C50.6427 69.1838 63.9032 77.4922 71.0078 89.8472C71.6045 90.8857 72.6787 91.462 73.7842 91.462C74.3747 91.462 74.9778 91.2973 75.5117 90.949C89.0424 82.1594 98 66.8344 98 49.4007C98 31.967 89.4507 17.3577 76.4477 8.47937C75.9074 8.11208 75.3044 7.9411 74.7076 7.9411C73.3822 7.9411 72.1008 8.78967 71.6548 10.1828C69.2677 17.6047 66.1646 22.0945 62.7662 22.0945C58.0236 22.0945 53.8526 13.3428 51.4027 0.0633262C50.605 0.0253305 49.8009 0.00633262 48.9969 0.00633262L49.0031 0Z" fill="#AAD2FF"/>
</g>
<defs>
<clipPath id="clip0_21261_1330">
<rect width="98" height="103" fill="white"/>
</clipPath>
</defs>
</svg>
