<svg width="63" height="63" viewBox="0 0 63 63" fill="none" xmlns="http://www.w3.org/2000/svg">
<path d="M62.2875 31.1353C62.2875 30.8613 62.2822 30.5891 62.275 30.3169C62.275 30.3151 62.275 30.3115 62.275 30.3098C62.275 30.2813 62.2715 30.2528 62.2715 30.2244C62.2697 30.1656 62.2715 30.1069 62.2679 30.0482C62.2679 30.0447 62.2679 30.0411 62.2679 30.0375C61.6842 13.3757 47.9489 0 31.1437 0C14.3386 0 0.603299 13.3757 0.0213557 30.0358C0.0213557 30.0393 0.0213557 30.0429 0.0213557 30.0464C0.0195761 30.1052 0.0213557 30.1639 0.0177964 30.2226C0.0177964 30.251 0.0142371 30.2795 0.0142371 30.308C0.0142371 30.3098 0.0142371 30.3133 0.0142371 30.3151C0.00533893 30.5873 0 30.8613 0 31.1353C0 31.4093 0.00533893 31.6815 0.0124575 31.9537C0.0124575 31.9555 0.0124575 31.959 0.0124575 31.9608C0.0124575 31.9893 0.0160168 32.0177 0.0160168 32.0462C0.0177964 32.1049 0.0160168 32.1636 0.0195761 32.2224C0.0195761 32.2259 0.0195761 32.2295 0.0195761 32.233C0.601519 48.8949 14.3368 62.2688 31.142 62.2688C47.9471 62.2688 61.6824 48.8931 62.2644 32.233C62.2644 32.2295 62.2644 32.2259 62.2644 32.2224C62.2661 32.1636 62.2644 32.1049 62.2679 32.0462C62.2679 32.0177 62.2715 31.9893 62.2715 31.9608C62.2715 31.959 62.2715 31.9555 62.2715 31.9537C62.2786 31.6815 62.2839 31.4093 62.2839 31.1353H62.2875ZM58.0359 31.3043C58.0359 31.4609 58.0306 31.6334 58.0253 31.8327V31.8541L58.0235 31.8968C58.0164 32.1281 58.0021 32.3576 57.9879 32.5871C57.9825 32.6956 57.9754 32.8041 57.9683 32.9127C57.6231 37.6061 55.9217 41.9366 53.1188 45.1995C50.282 48.5017 46.6177 50.32 42.7986 50.32C39.7341 50.32 36.7692 49.1457 34.2528 46.9751C34.1086 46.8506 34.0873 46.6353 34.1976 46.4805C37.029 42.561 38.8015 37.5065 38.9617 31.9644C38.9617 31.9626 38.9617 31.959 38.9617 31.9573C38.9688 31.685 38.9742 31.4128 38.9742 31.1388C38.9742 30.8649 38.9688 30.5926 38.9617 30.3204C38.9617 30.3186 38.9617 30.3151 38.9617 30.3133C38.8015 24.7712 37.029 19.7166 34.1976 15.7972C34.0855 15.6424 34.1069 15.4271 34.2528 15.3025C36.771 13.132 39.7341 11.9577 42.7986 11.9577C46.616 11.9577 50.282 13.776 53.1188 17.0781C55.9235 20.3411 57.6248 24.6734 57.9683 29.3686C57.9754 29.4736 57.9808 29.5785 57.9861 29.6817C58.0003 29.9148 58.0146 30.1461 58.0217 30.3809V30.4307L58.0235 30.445C58.0288 30.6442 58.0324 30.815 58.0341 30.9716C58.0341 31.0285 58.0341 31.0855 58.0341 31.1424C58.0341 31.1976 58.0341 31.2545 58.0341 31.3114L58.0359 31.3043ZM9.16872 45.1995C6.36578 41.9366 4.66266 37.6061 4.31919 32.9109C4.31207 32.8006 4.30496 32.692 4.29962 32.5817C4.28538 32.354 4.27114 32.1245 4.26402 31.895V31.8256L4.26046 31.7669C4.25691 31.6495 4.25513 31.5409 4.25335 31.4395C4.25335 31.436 4.25335 31.4306 4.25335 31.4271C4.25335 31.3257 4.25157 31.2296 4.25157 31.1371C4.25157 31.0445 4.25157 30.9467 4.25335 30.8435C4.25335 30.8417 4.25335 30.8382 4.25335 30.8346C4.25335 30.7314 4.25691 30.6211 4.26046 30.5019L4.26402 30.4379V30.372C4.27114 30.1407 4.28538 29.913 4.29962 29.6835C4.30496 29.575 4.31207 29.4664 4.31919 29.3579C4.66444 24.6645 6.36578 20.334 9.16872 17.071C12.0055 13.7689 15.6698 11.9506 19.4889 11.9506C22.5534 11.9506 25.5183 13.1249 28.0365 15.2954C28.1806 15.42 28.202 15.6353 28.0917 15.79C25.2603 19.7095 23.4877 24.7641 23.3276 30.3062C23.3276 30.308 23.3276 30.3115 23.3276 30.3133C23.3204 30.5855 23.3151 30.8577 23.3151 31.1317C23.3151 31.4057 23.3204 31.6779 23.3276 31.9501C23.3276 31.9519 23.3276 31.9555 23.3276 31.9573C23.4877 37.4993 25.2603 42.5539 28.0917 46.4734C28.2038 46.6282 28.1824 46.8435 28.0365 46.968C25.5183 49.1386 22.5552 50.3128 19.4889 50.3128C15.6715 50.3128 12.0055 48.4945 9.16872 45.1924V45.1995ZM27.5738 31.8398V31.7811C27.5649 31.5303 27.5613 31.3239 27.5613 31.1353C27.5613 30.9467 27.5649 30.7403 27.572 30.4894V30.4325C27.6912 26.3458 28.8338 22.4939 30.8305 19.3181C30.9729 19.0922 31.3093 19.0922 31.4516 19.3181C33.4484 22.4939 34.5927 26.3458 34.7102 30.4325V30.5019H34.7119C34.7191 30.7439 34.7208 30.9467 34.7208 31.1353C34.7208 31.3239 34.7173 31.5267 34.7119 31.7687L34.7102 31.8381C34.5909 35.9248 33.4484 39.7767 31.4516 42.9525C31.3093 43.1784 30.9729 43.1784 30.8305 42.9525C28.8338 39.7767 27.6895 35.9248 27.572 31.8381L27.5738 31.8398ZM42.9837 7.00099C43.3396 7.17535 43.2115 7.70376 42.8164 7.70198C42.8111 7.70198 42.8057 7.70198 42.7986 7.70198C38.5382 7.70198 34.5945 9.35838 31.384 12.1606C31.2452 12.2815 31.0405 12.2815 30.9017 12.1606C27.6912 9.36016 23.7476 7.70198 19.4871 7.70198C19.4818 7.70198 19.4764 7.70198 19.4693 7.70198C19.0742 7.70198 18.9461 7.17535 19.302 7.00099C22.9485 5.20404 26.9794 4.25041 31.142 4.25041C35.3046 4.25041 39.3372 5.20404 42.9819 7.00099H42.9837ZM19.3038 55.2696C18.9479 55.0952 19.076 54.5668 19.4711 54.5686C19.4764 54.5686 19.4817 54.5686 19.4889 54.5686C23.7493 54.5686 27.693 52.9122 30.9035 50.11C31.0423 49.989 31.247 49.989 31.3858 50.11C34.5963 52.9104 38.5399 54.5686 42.8004 54.5686C42.8057 54.5686 42.8111 54.5686 42.8182 54.5686C43.2133 54.5686 43.3414 55.0952 42.9855 55.2696C39.339 57.0665 35.3081 58.0202 31.1455 58.0202C26.9829 58.0202 22.9521 57.0665 19.3056 55.2696H19.3038Z" fill="#C4F5B2"/>
</svg>
