<svg width="72" height="72" viewBox="0 0 72 72" fill="none" xmlns="http://www.w3.org/2000/svg">
<path d="M72 36.001C72 35.6842 71.9938 35.3695 71.9856 35.0547C71.9856 35.0527 71.9856 35.0485 71.9856 35.0465C71.9856 35.0136 71.9815 34.9807 71.9815 34.9477C71.9794 34.8799 71.9815 34.812 71.9774 34.7441C71.9774 34.74 71.9774 34.7359 71.9774 34.7317C71.3026 15.466 55.4256 0 36 0C16.5744 0 0.697371 15.466 0.0246857 34.7297C0.0246857 34.7338 0.0246857 34.7379 0.0246857 34.742C0.0226286 34.8099 0.0246857 34.8778 0.0205714 34.9457C0.0205714 34.9786 0.0164571 35.0115 0.0164571 35.0444C0.0164571 35.0465 0.0164571 35.0506 0.0164571 35.0527C0.00617143 35.3674 0 35.6842 0 36.001C0 36.3178 0.00617143 36.6326 0.0144 36.9473C0.0144 36.9494 0.0144 36.9535 0.0144 36.9556C0.0144 36.9885 0.0185143 37.0214 0.0185143 37.0543C0.0205714 37.1222 0.0185143 37.1901 0.0226286 37.258C0.0226286 37.2621 0.0226286 37.2662 0.0226286 37.2703C0.695314 56.536 16.5723 72 35.9979 72C55.4235 72 71.3006 56.534 71.9733 37.2703C71.9733 37.2662 71.9733 37.2621 71.9733 37.258C71.9753 37.1901 71.9733 37.1222 71.9774 37.0543C71.9774 37.0214 71.9815 36.9885 71.9815 36.9556C71.9815 36.9535 71.9815 36.9494 71.9815 36.9473C71.9897 36.6326 71.9959 36.3178 71.9959 36.001H72ZM67.0855 36.1965C67.0855 36.3775 67.0793 36.577 67.0731 36.8075V36.8321L67.0711 36.8815C67.0629 37.1489 67.0464 37.4143 67.0299 37.6797C67.0238 37.8052 67.0155 37.9307 67.0073 38.0562C66.6082 43.4831 64.6416 48.4903 61.4016 52.2632C58.1225 56.0814 53.8869 58.1838 49.4722 58.1838C45.9298 58.1838 42.5026 56.8261 39.5938 54.3163C39.4272 54.1723 39.4025 53.9234 39.5301 53.7444C42.803 49.2124 44.8519 43.3679 45.037 36.9597C45.037 36.9576 45.037 36.9535 45.037 36.9515C45.0453 36.6367 45.0514 36.322 45.0514 36.0051C45.0514 35.6883 45.0453 35.3736 45.037 35.0588C45.037 35.0568 45.037 35.0527 45.037 35.0506C44.8519 28.6424 42.803 22.7979 39.5301 18.2659C39.4005 18.0869 39.4251 17.838 39.5938 17.694C42.5047 15.1842 45.9298 13.8265 49.4722 13.8265C53.8848 13.8265 58.1225 15.9289 61.4016 19.7471C64.6437 23.52 66.6103 28.5293 67.0073 33.9582C67.0155 34.0796 67.0217 34.201 67.0279 34.3203C67.0443 34.5898 67.0608 34.8572 67.069 35.1288V35.1864L67.0711 35.2028C67.0773 35.4332 67.0814 35.6307 67.0834 35.8118C67.0834 35.8776 67.0834 35.9434 67.0834 36.0093C67.0834 36.073 67.0834 36.1389 67.0834 36.2047L67.0855 36.1965ZM10.5984 52.2632C7.3584 48.4903 5.38971 43.4831 4.99269 38.0541C4.98446 37.9266 4.97623 37.8011 4.97006 37.6735C4.9536 37.4102 4.93714 37.1448 4.92891 36.8795V36.7992L4.9248 36.7313C4.92069 36.5956 4.91863 36.4701 4.91657 36.3528C4.91657 36.3487 4.91657 36.3425 4.91657 36.3384C4.91657 36.2211 4.91451 36.1101 4.91451 36.0031C4.91451 35.8961 4.91451 35.783 4.91657 35.6637C4.91657 35.6616 4.91657 35.6575 4.91657 35.6534C4.91657 35.534 4.92069 35.4065 4.9248 35.2687L4.92891 35.1946V35.1185C4.93714 34.8511 4.9536 34.5877 4.97006 34.3224C4.97623 34.1969 4.98446 34.0714 4.99269 33.9459C5.39177 28.519 7.3584 23.5118 10.5984 19.7388C13.8775 15.9207 18.1131 13.8182 22.5278 13.8182C26.0702 13.8182 29.4974 15.176 32.4082 17.6858C32.5749 17.8298 32.5995 18.0787 32.472 18.2577C29.1991 22.7897 27.1502 28.6342 26.965 35.0424C26.965 35.0444 26.965 35.0485 26.965 35.0506C26.9568 35.3654 26.9506 35.6801 26.9506 35.9969C26.9506 36.3137 26.9568 36.6285 26.965 36.9432C26.965 36.9453 26.965 36.9494 26.965 36.9515C27.1502 43.3596 29.1991 49.2041 32.472 53.7362C32.6016 53.9151 32.5769 54.1641 32.4082 54.3081C29.4974 56.8179 26.0722 58.1756 22.5278 58.1756C18.1152 58.1756 13.8775 56.0731 10.5984 52.255V52.2632ZM31.8734 36.8157V36.7478C31.8631 36.4577 31.859 36.2191 31.859 36.001C31.859 35.783 31.8631 35.5443 31.8713 35.2543V35.1884C32.0091 30.463 33.3298 26.0092 35.6379 22.3371C35.8025 22.0758 36.1913 22.0758 36.3559 22.3371C38.664 26.0092 39.9867 30.463 40.1225 35.1884V35.2687H40.1246C40.1328 35.5484 40.1349 35.783 40.1349 36.001C40.1349 36.2191 40.1307 36.4536 40.1246 36.7334L40.1225 36.8136C39.9847 41.539 38.664 45.9929 36.3559 49.665C36.1913 49.9262 35.8025 49.9262 35.6379 49.665C33.3298 45.9929 32.0071 41.539 31.8713 36.8136L31.8734 36.8157ZM49.6862 8.09509C50.0976 8.29669 49.9495 8.90768 49.4928 8.90563C49.4866 8.90563 49.4805 8.90563 49.4722 8.90563C44.5474 8.90563 39.9888 10.8209 36.2777 14.061C36.1173 14.2009 35.8807 14.2009 35.7202 14.061C32.0091 10.8229 27.4505 8.90563 22.5257 8.90563C22.5195 8.90563 22.5134 8.90563 22.5051 8.90563C22.0485 8.90563 21.9003 8.29669 22.3118 8.09509C26.5269 6.01731 31.1863 4.91465 35.9979 4.91465C40.8096 4.91465 45.4711 6.01731 49.6841 8.09509H49.6862ZM22.3138 63.907C21.9024 63.7054 22.0505 63.0944 22.5072 63.0964C22.5134 63.0964 22.5195 63.0964 22.5278 63.0964C27.4526 63.0964 32.0112 61.1812 35.7223 57.9411C35.8827 57.8012 36.1193 57.8012 36.2798 57.9411C39.9909 61.1791 44.5495 63.0964 49.4743 63.0964C49.4805 63.0964 49.4866 63.0964 49.4949 63.0964C49.9515 63.0964 50.0997 63.7054 49.6882 63.907C45.4731 65.9847 40.8137 67.0874 36.0021 67.0874C31.1904 67.0874 26.531 65.9847 22.3159 63.907H22.3138Z" fill="#002148"/>
</svg>
