<svg width="58" height="58" viewBox="0 0 58 58" fill="none" xmlns="http://www.w3.org/2000/svg">
<path d="M28.75 0.5C44.348 0.5 57 13.2558 57 29C57 44.7442 44.348 57.5 28.75 57.5C13.152 57.5 0.5 44.7442 0.5 29C0.5 13.2558 13.152 0.500001 28.75 0.5Z" stroke="#F5F5F7"/>
<g clip-path="url(#clip0_21261_1343)">
<path d="M26.2076 42.9646C24.4716 42.9185 22.718 43.0261 20.982 42.9646C18.8839 42.8922 17.1567 42.5454 15.8003 40.8312C14.8193 39.5911 14.6042 38.1974 14.5537 36.6478C14.681 31.6281 14.3891 26.5294 14.5537 21.5207C14.6174 19.5387 14.9159 17.8509 16.4587 16.4857C17.7361 15.3531 19.246 15.1073 20.9074 15.0524C25.9025 14.8856 30.9899 15.1819 35.996 15.0524C38.0019 15.1161 39.6414 15.4124 41.0306 16.9576C42.185 18.2394 42.433 19.8394 42.4638 21.5207C42.3496 26.5799 42.6284 31.7137 42.4221 36.7575C42.3672 38.1118 42.3035 39.1038 41.5859 40.2979C39.2902 44.1191 34.2292 42.6705 30.5224 42.9668C30.4829 42.9756 30.3929 42.9405 30.3929 42.9076V32.9889C30.3929 32.9889 30.4456 32.9319 30.45 32.9319H33.6367L34.1656 29.0469H30.45C30.4083 29.0469 30.3951 28.9548 30.3907 28.9174C30.3314 28.4192 30.3644 27.4776 30.3907 26.953C30.4609 25.511 30.8713 24.4201 32.4844 24.3323C33.088 24.2994 33.7091 24.3214 34.3148 24.295L34.2995 21.0488C33.7881 20.9435 33.2658 20.8491 32.7456 20.792C30.8626 20.5857 28.6306 20.8162 27.3774 22.3921C25.8367 24.3258 26.2647 26.7379 26.2076 29.0469H22.7005V32.9319H26.2076V42.9646Z" fill="#F5F5F7"/>
</g>
<defs>
<clipPath id="clip0_21261_1343">
<rect width="28" height="28" fill="white" transform="translate(14.5 15)"/>
</clipPath>
</defs>
</svg>
