<svg width="58" height="58" viewBox="0 0 58 58" fill="none" xmlns="http://www.w3.org/2000/svg">
<path d="M28.75 0.5C44.348 0.5 57 13.2558 57 29C57 44.7442 44.348 57.5 28.75 57.5C13.152 57.5 0.5 44.7442 0.5 29C0.5 13.2558 13.152 0.500001 28.75 0.5Z" stroke="#F5F5F7"/>
<g clip-path="url(#clip0_21261_1337)">
<path d="M29 18.5C32.4734 18.5 32.8848 18.5154 34.2508 18.5769C35.5203 18.6332 36.2059 18.8484 36.6629 19.0276C37.2672 19.2633 37.7039 19.5501 38.1559 20.006C38.6129 20.467 38.8922 20.9024 39.1258 21.5119C39.3035 21.973 39.5168 22.6696 39.5727 23.945C39.6336 25.328 39.6488 25.743 39.6488 29.2415C39.6488 32.7451 39.6336 33.16 39.5727 34.5379C39.5168 35.8185 39.3035 36.51 39.1258 36.971C38.8922 37.5805 38.6078 38.0211 38.1559 38.4769C37.6988 38.938 37.2672 39.2197 36.6629 39.4553C36.2059 39.6346 35.5152 39.8497 34.2508 39.9061C32.8797 39.9675 32.4684 39.9829 29 39.9829C25.5266 39.9829 25.1152 39.9675 23.7492 39.9061C22.4797 39.8497 21.7941 39.6346 21.3371 39.4553C20.7328 39.2197 20.2961 38.9328 19.8441 38.4769C19.3871 38.0159 19.1078 37.5805 18.8742 36.971C18.6965 36.51 18.4832 35.8134 18.4273 34.5379C18.3664 33.1549 18.3512 32.74 18.3512 29.2415C18.3512 25.7378 18.3664 25.3229 18.4273 23.945C18.4832 22.6645 18.6965 21.973 18.8742 21.5119C19.1078 20.9024 19.3922 20.4619 19.8441 20.006C20.3012 19.545 20.7328 19.2633 21.3371 19.0276C21.7941 18.8484 22.4848 18.6332 23.7492 18.5769C25.1152 18.5154 25.5266 18.5 29 18.5ZM29 16.1387C25.4707 16.1387 25.0289 16.154 23.6426 16.2155C22.2613 16.277 21.3117 16.5024 20.4891 16.8251C19.6309 17.1631 18.9047 17.6088 18.1836 18.3413C17.4574 19.0686 17.0156 19.8011 16.6805 20.6616C16.3605 21.4966 16.1371 22.4493 16.0762 23.8426C16.0152 25.2461 16 25.6917 16 29.2517C16 32.8117 16.0152 33.2573 16.0762 34.6557C16.1371 36.049 16.3605 37.0069 16.6805 37.8367C17.0156 38.7023 17.4574 39.4348 18.1836 40.1622C18.9047 40.8895 19.6309 41.3403 20.484 41.6733C21.3117 41.996 22.2563 42.2213 23.6375 42.2828C25.0238 42.3443 25.4656 42.3596 28.9949 42.3596C32.5242 42.3596 32.966 42.3443 34.3523 42.2828C35.7336 42.2213 36.6832 41.996 37.5059 41.6733C38.359 41.3403 39.0852 40.8895 39.8063 40.1622C40.5273 39.4348 40.9742 38.7023 41.3043 37.8418C41.6242 37.0069 41.8477 36.0541 41.9086 34.6608C41.9695 33.2625 41.9848 32.8168 41.9848 29.2568C41.9848 25.6969 41.9695 25.2512 41.9086 23.8528C41.8477 22.4596 41.6242 21.5017 41.3043 20.6719C40.9844 19.8011 40.5426 19.0686 39.8164 18.3413C39.0953 17.6139 38.3691 17.1631 37.516 16.8302C36.6883 16.5075 35.7438 16.2821 34.3625 16.2206C32.9711 16.154 32.5293 16.1387 29 16.1387Z" fill="white"/>
<path d="M34.3496 27.8105C30.6629 27.8105 27.6719 30.8276 27.6719 34.5463C27.6719 38.2651 30.6629 41.2822 34.3496 41.2822C38.0363 41.2822 41.0273 38.2651 41.0273 34.5463C41.0273 30.8276 38.0363 27.8105 34.3496 27.8105ZM34.3496 38.9157C31.9578 38.9157 30.018 36.9589 30.018 34.5463C30.018 32.1338 31.9578 30.177 34.3496 30.177C36.7414 30.177 38.6813 32.1338 38.6813 34.5463C38.6813 36.9589 36.7414 38.9157 34.3496 38.9157Z" fill="#F5F5F7"/>
</g>
<defs>
<clipPath id="clip0_21261_1337">
<rect width="26" height="26.2261" fill="white" transform="translate(16 16.1387)"/>
</clipPath>
</defs>
</svg>
