<svg width="72" height="72" viewBox="0 0 72 72" fill="none" xmlns="http://www.w3.org/2000/svg">
<path d="M67.7628 50.3554C57.7589 47.8128 50.8983 44.0832 46.7326 41.2114C46.4199 40.9954 46.1155 40.7815 45.8234 40.5696C42.7088 38.3109 42.7088 33.6802 45.8234 31.4215C46.1155 31.2096 46.4179 30.9957 46.7326 30.7776C50.8963 27.9058 57.7569 24.1783 67.7587 21.6357C68.347 21.4855 68.6453 20.8272 68.3799 20.28C67.8369 19.165 67.2382 18.0809 66.5861 17.0338C66.4833 16.8693 66.2837 16.7911 66.0965 16.8405C59.9539 18.4286 54.8727 20.4466 50.7255 22.5511C49.9006 22.9687 49.0243 22.0923 49.4439 21.2695C51.5463 17.1223 53.5665 12.0411 55.1525 5.90058C55.1998 5.71338 55.1217 5.51178 54.9591 5.41098C53.9121 4.75886 52.83 4.16024 51.715 3.61715C51.1678 3.35178 50.5095 3.65006 50.3594 4.23841C47.8167 14.2443 44.0871 21.1049 41.2154 25.2706C40.9994 25.5833 40.7854 25.8878 40.5715 26.1799C38.3127 29.2944 33.6821 29.2965 31.4234 26.1799C31.2115 25.8878 30.9975 25.5854 30.7795 25.2706C27.9077 21.107 24.1802 14.2464 21.6355 4.24252C21.4853 3.65418 20.827 3.35589 20.2798 3.62126C19.1648 4.16435 18.0828 4.76504 17.0357 5.41715C16.8711 5.52001 16.7929 5.71955 16.8423 5.90675C18.4284 12.0494 20.4485 17.1305 22.5529 21.2777C22.9706 22.1026 22.0942 22.979 21.2714 22.5593C17.1241 20.4569 12.043 18.4368 5.90243 16.8507C5.71523 16.8014 5.51363 16.8816 5.41283 17.0441C4.76071 18.0912 4.16414 19.1733 3.62106 20.2882C3.35568 20.8354 3.65397 21.4937 4.24231 21.6439C14.2462 24.1865 21.1068 27.9161 25.2725 30.7879C25.5852 31.0039 25.8896 31.2178 26.1818 31.4297C29.2963 33.6885 29.2963 38.3191 26.1818 40.5778C25.8896 40.7897 25.5872 41.0037 25.2725 41.2197C21.1088 44.0914 14.2483 47.819 4.24643 50.3616C3.65808 50.5118 3.3598 51.1701 3.62517 51.7173C4.16826 52.8322 4.76689 53.9163 5.419 54.9634C5.52186 55.128 5.7214 55.2062 5.9086 55.1568C12.0512 53.5687 17.1324 51.5506 21.2796 49.4462C22.1045 49.0286 22.9808 49.9049 22.5612 50.7278C20.4588 54.875 18.4387 59.9561 16.8526 66.0967C16.8053 66.2839 16.8835 66.4855 17.046 66.5863C18.0931 67.2384 19.1751 67.837 20.2901 68.3801C20.8373 68.6455 21.4956 68.3472 21.6458 67.7589C24.1884 57.7529 27.918 50.8923 30.7898 46.7266C31.0058 46.4139 31.2197 46.1115 31.4316 45.8194C33.6924 42.7029 38.321 42.7029 40.5818 45.8194C40.7936 46.1115 41.0076 46.4139 41.2236 46.7287C44.0954 50.8923 47.8229 57.7529 50.3676 67.7568C50.5178 68.3451 51.176 68.6434 51.7232 68.3781C52.8382 67.835 53.9203 67.2343 54.9674 66.5822C55.1319 66.4793 55.2101 66.2798 55.1607 66.0926C53.5747 59.9499 51.5546 54.8688 49.4501 50.7216C49.0325 49.8967 49.9088 49.0203 50.7317 49.44C54.8789 51.5424 59.9601 53.5625 66.1006 55.1486C66.2878 55.1979 66.4894 55.1177 66.5902 54.9552C67.2403 53.9081 67.8389 52.8261 68.382 51.7111C68.6474 51.1639 68.3491 50.5056 67.7607 50.3554H67.7628ZM38.4608 36.9264C38.4608 37.4818 38.0103 37.9323 37.4549 37.9323H34.5502C33.9948 37.9323 33.5443 37.4818 33.5443 36.9264V34.0217C33.5443 33.4663 33.9948 33.0158 34.5502 33.0158H37.4549C38.0103 33.0158 38.4608 33.4663 38.4608 34.0217V36.9264Z" fill="#002148"/>
<path d="M34.5005 19.0697H37.4998C38.0306 19.0697 38.4605 18.6398 38.4605 18.109V0.9936C38.4605 0.477257 38.0511 0.0555429 37.5348 0.0329143C37.0267 0.0102857 36.5145 0 36.0022 0C35.49 0 34.9778 0.0123429 34.4697 0.0329143C33.9533 0.0555429 33.5439 0.477257 33.5439 0.9936V18.109C33.5439 18.6398 33.9739 19.0697 34.5046 19.0697H34.5005Z" fill="#002148"/>
<path d="M37.4991 52.9297H34.4998C33.969 52.9297 33.5391 53.3596 33.5391 53.8904V71.0058C33.5391 71.5222 33.9484 71.9439 34.4648 71.9665C34.9729 71.9891 35.4851 71.9994 35.9974 71.9994C36.5096 71.9994 37.0218 71.9871 37.5299 71.9665C38.0463 71.9439 38.4556 71.5222 38.4556 71.0058V53.8904C38.4556 53.3596 38.0257 52.9297 37.495 52.9297H37.4991Z" fill="#002148"/>
<path d="M71.9747 34.7404C71.9747 34.7404 71.9747 34.7322 71.9747 34.7281C71.9706 34.6376 71.9686 34.5471 71.9644 34.4545C71.9418 33.9423 71.518 33.5391 71.0038 33.5391H53.8904C53.3596 33.5391 52.9297 33.969 52.9297 34.4998V37.4991C52.9297 38.0298 53.3596 38.4598 53.8904 38.4598H71.0038C71.518 38.4598 71.9418 38.0565 71.9644 37.5443C71.9686 37.4538 71.9727 37.3633 71.9747 37.2707C71.9747 37.2666 71.9747 37.2625 71.9747 37.2584C71.9891 36.8408 71.9994 36.4211 71.9994 35.9994C71.9994 35.5777 71.9891 35.158 71.9747 34.7404Z" fill="#002148"/>
<path d="M19.0697 37.4991V34.4998C19.0697 33.969 18.6398 33.5391 18.109 33.5391H0.995658C0.481372 33.5391 0.0576 33.9423 0.0349714 34.4545C0.0308572 34.545 0.0267429 34.6355 0.0246857 34.7281C0.0246857 34.7322 0.0246857 34.7363 0.0246857 34.7404C0.0102857 35.158 0 35.5777 0 35.9994C0 36.4211 0.0102857 36.8408 0.0246857 37.2584C0.0246857 37.2625 0.0246857 37.2666 0.0246857 37.2707C0.0267429 37.3612 0.0308572 37.4517 0.0349714 37.5443C0.0576 38.0565 0.481372 38.4598 0.995658 38.4598H18.109C18.6398 38.4598 19.0697 38.0298 19.0697 37.4991Z" fill="#002148"/>
</svg>
