<svg width="403" height="58" viewBox="0 0 403 58" fill="none" xmlns="http://www.w3.org/2000/svg">
<path d="M37.8874 31.7834C37.4235 31.4075 37.6674 30.6557 38.2633 30.6237C43.1422 30.3517 49.8606 30.7396 57.2789 33.379L57.8028 33.563C58.1147 31.8554 58.2867 30.0998 58.2867 28.3002C58.2867 27.6084 58.2587 26.9285 58.2067 26.2487C58.1867 25.9807 58.0028 25.7528 57.7468 25.6728C53.6798 24.3931 49.8326 23.6813 46.3374 23.3373C45.7656 23.2814 45.5376 22.5815 45.9655 22.1976C48.5889 19.8621 51.2803 17.0268 53.8197 13.6036C53.9797 13.3876 53.9957 13.0877 53.8517 12.8597C52.548 10.7802 50.9884 8.88463 49.2168 7.20102L48.9128 7.64492C44.4659 14.1394 39.2631 18.4065 35.156 21.0539C34.6521 21.3778 34.0162 20.9139 34.1682 20.338C35.4159 15.6111 37.8674 9.34453 42.6663 3.10595L43.0062 2.66605C40.8787 1.51032 38.5872 0.618521 36.1798 0.0186577C35.9198 -0.0453277 35.6399 0.0586486 35.4839 0.278598C33.0125 3.74981 31.1449 7.18902 29.7372 10.4083C29.5093 10.9322 28.7694 10.9322 28.5415 10.4083C27.1338 7.18902 25.2662 3.74981 22.7948 0.278598C22.6388 0.0586486 22.3589 -0.0453277 22.099 0.0186577C19.6955 0.618521 17.404 1.51032 15.2725 2.66605L15.6124 3.10595C20.4193 9.34853 22.8668 15.6231 24.1145 20.35C24.2665 20.9259 23.6306 21.3898 23.1267 21.0659C19.0157 18.4225 13.8009 14.1594 9.34587 7.66091L9.04194 7.21702C7.27434 8.90063 5.7147 10.8042 4.41499 12.8797C4.27103 13.1077 4.28702 13.4036 4.44699 13.6236C6.98641 17.0428 9.68179 19.8781 12.3092 22.2096C12.7371 22.5895 12.5091 23.2893 11.9413 23.3493C8.44607 23.6973 4.59895 24.4131 0.535878 25.6968C0.279936 25.7768 0.0959781 26.0087 0.0759827 26.2767C0.0279936 26.9445 0 27.6164 0 28.2962C0 30.1038 0.171961 31.8674 0.487889 33.587L1.01177 33.399C8.42608 30.7556 15.1445 30.3557 20.0234 30.6277C20.6193 30.6597 20.8632 31.4115 20.3993 31.7874C16.6122 34.8787 10.9495 38.5139 3.40322 40.7414L2.86735 40.8973C3.9351 43.1168 5.28279 45.1764 6.85044 47.0399C7.0224 47.2439 7.31033 47.3239 7.56627 47.2359C11.6014 45.8802 15.1285 44.1966 18.1559 42.421C18.6517 42.133 19.2476 42.565 19.1236 43.1248C18.3758 46.56 17.8679 50.4432 17.8319 54.7062C17.8319 54.9741 17.9919 55.2221 18.2398 55.322C20.4753 56.2258 22.8468 56.8537 25.3142 57.1776L25.2982 56.6257C25.0743 48.7595 26.7739 42.245 28.5375 37.6901C28.7534 37.1342 29.5413 37.1342 29.7572 37.6901C31.5248 42.249 33.2324 48.7555 33.0165 56.6217L33.0005 57.1736C35.4679 56.8457 37.8394 56.2138 40.0749 55.31C40.3228 55.2101 40.4868 54.9621 40.4828 54.6902C40.4428 50.4272 39.9309 46.544 39.1791 43.1088C39.0551 42.549 39.651 42.1171 40.1468 42.405C43.1742 44.1766 46.7054 45.8562 50.7404 47.2079C50.9964 47.2919 51.2803 47.2159 51.4563 47.0079C53.0239 45.1444 54.3676 43.0808 55.4354 40.8613L54.8995 40.7054C47.3492 38.4859 41.6825 34.8547 37.8914 31.7674L37.8874 31.7834Z" fill="#F5F5F7"/>
<path d="M392.347 32.0518V44.6889H386.26V32.0518L375.606 12.4043H382.293L388.288 23.8897C388.687 24.7215 389.027 25.5053 389.303 26.2411L390.319 23.8897L396.314 12.4043H403L392.347 32.0518Z" fill="#F5F5F7"/>
<path d="M360.39 23.0579L357.438 30.8081H365.74L362.789 23.0579C362.389 22.0141 361.989 20.8424 361.589 19.5507L360.39 23.0579ZM345.629 44.6889L358.682 12.4043H364.493L377.546 44.6889H371.043L367.816 36.2469H355.363L352.135 44.6889H345.633H345.629Z" fill="#F5F5F7"/>
<path d="M322.938 17.7551V24.9494H329.673C331.364 24.9494 332.592 24.6575 333.364 24.0736C334.164 23.4898 334.564 22.582 334.564 21.3543C334.564 20.1265 334.164 19.2187 333.364 18.6349C332.596 18.051 331.364 17.7591 329.673 17.7591H322.938V17.7551ZM322.938 30.3002V39.2462H329.997C333.808 39.2462 335.715 37.7545 335.715 34.7712C335.715 31.7879 333.808 30.2962 329.997 30.2962H322.938V30.3002ZM316.848 44.6889V12.4043H330.133C333.424 12.4043 335.959 13.0961 337.743 14.4798C339.558 15.8635 340.462 17.7991 340.462 20.2905C340.462 21.8581 340.03 23.2418 339.171 24.4416C338.339 25.6093 337.279 26.5171 335.987 27.1609C339.862 28.6966 341.798 31.312 341.798 35.0031C341.798 37.9545 340.69 40.3059 338.479 42.0615C336.295 43.8131 333.592 44.6889 330.361 44.6889H316.848Z" fill="#F5F5F7"/>
<path d="M276.856 32.0518V44.6889H270.77V32.0518L260.116 12.4043H266.803L272.797 23.8897C273.197 24.7215 273.537 25.5053 273.813 26.2411L274.829 23.8897L280.823 12.4043H287.51L276.856 32.0518Z" fill="#F5F5F7"/>
<path d="M251.131 44.7156L249.839 40.2886C247.687 43.6718 244.412 45.3634 240.013 45.3634C235.614 45.3634 231.651 43.7798 228.576 40.6125C225.532 37.4453 224.009 33.4342 224.009 28.5753C224.009 23.7164 225.624 19.7053 228.852 16.538C232.111 13.3707 236.078 11.7871 240.753 11.7871C243.92 11.7871 246.748 12.5109 249.239 13.9546C251.758 15.3703 253.634 17.2739 254.866 19.6733L250.299 22.9926C248.271 19.0894 245.056 17.1339 240.661 17.1339C237.742 17.1339 235.266 18.1777 233.235 20.2692C231.207 22.3607 230.191 25.1281 230.191 28.5713C230.191 31.8305 231.131 34.5059 233.007 36.5975C234.914 38.689 237.31 39.7327 240.201 39.7327C242.816 39.7327 244.86 39.0569 246.336 37.7052C247.811 36.3215 248.719 34.5699 249.055 32.4464H238.633V27.4635H255.146V44.7116H251.135L251.131 44.7156Z" fill="#F5F5F7"/>
<path d="M197.879 17.7551V26.2411H205.581C209.18 26.2411 210.976 24.8255 210.976 21.9981C210.976 19.1708 209.176 17.7551 205.581 17.7551H197.879ZM210.516 44.6889L203.045 31.5919H197.879V44.6889H191.792V12.4043H205.581C209.116 12.4043 211.915 13.2361 213.975 14.8957C216.034 16.5234 217.066 18.7389 217.066 21.5382C217.066 26.1212 214.607 29.2884 209.688 31.04L217.482 44.6929H210.52L210.516 44.6889Z" fill="#F5F5F7"/>
<path d="M159.567 44.6889V12.4043H181.846V17.8471H165.654V25.2734H180.555V30.7161H165.654V39.2462H181.982V44.6889H159.567Z" fill="#F5F5F7"/>
<path d="M122.828 44.6889V12.4043H129.007L142.476 32.9276C143.215 34.1593 143.675 35.0031 143.859 35.463V12.4043H149.762V44.6889H143.583L130.114 24.0256C129.375 22.7939 128.915 21.9501 128.731 21.4902V44.6889H122.828Z" fill="#F5F5F7"/>
<path d="M90.6035 44.6889V12.4043H112.882V17.8471H96.6941V25.2734H111.591V30.7161H96.6941V39.2462H113.018V44.6889H90.6035Z" fill="#F5F5F7"/>
</svg>
