<svg width="179" height="30" viewBox="0 0 179 30" fill="none" xmlns="http://www.w3.org/2000/svg">
<path d="M166.896 8.83265L178.422 19.1914L166.896 29.5501L155.369 19.1914L166.896 8.83265ZM166.098 7.56094L154.572 17.9196V10.6015L166.098 0.242782V7.56094ZM179 10.3587V17.6884L167.474 7.32971V0L179 10.3587Z" fill="#2A6FBC"/>
<path fill-rule="evenodd" clip-rule="evenodd" d="M133.172 24.2438C133.249 24.8681 133.383 25.334 133.577 25.6427H129.345C129.268 25.4115 129.206 25.1722 129.16 24.9259C129.106 24.6866 129.071 24.4404 129.056 24.186C128.386 24.8681 127.599 25.3421 126.698 25.6196C125.796 25.8971 124.875 26.0358 123.935 26.0358C123.206 26.0358 122.536 25.9433 121.911 25.7699C121.276 25.5965 120.732 25.319 120.258 24.9491C119.796 24.5791 119.426 24.1051 119.16 23.5386C118.894 22.9721 118.755 22.29 118.755 21.5039C118.755 20.6483 118.909 19.9397 119.218 19.3766C119.518 18.8217 119.911 18.3789 120.397 18.0471C120.874 17.7153 121.422 17.4656 122.039 17.2956C122.651 17.1222 123.276 16.995 123.911 16.9026C124.536 16.7985 125.149 16.7291 125.761 16.6598C126.371 16.6054 126.909 16.521 127.38 16.4054C127.854 16.2783 128.212 16.1048 128.49 15.8852C128.767 15.6655 128.894 15.3303 128.871 14.9025C128.871 14.4516 128.802 14.0932 128.652 13.8273C128.513 13.5649 128.32 13.3614 128.073 13.2146C127.831 13.0643 127.542 12.9718 127.218 12.914C126.894 12.8677 126.547 12.8446 126.177 12.8446C125.353 12.8446 124.706 13.0215 124.235 13.3764C123.758 13.7314 123.48 14.3163 123.403 15.1337H119.229C119.287 14.1626 119.53 13.3418 119.969 12.6943C120.4 12.055 120.948 11.5382 121.611 11.1451C122.281 10.7521 123.021 10.4746 123.865 10.3012C124.698 10.1393 125.533 10.0584 126.374 10.0584C127.149 10.0584 127.912 10.1047 128.698 10.2203C129.484 10.3278 130.201 10.5359 130.848 10.8446C131.484 11.1567 132.027 11.596 132.432 12.151C132.848 12.7059 133.056 13.4574 133.056 14.3707V22.2669C133.056 22.9606 133.091 23.608 133.172 24.2438ZM128.871 18.2205C128.698 18.3824 128.478 18.498 128.212 18.5905C127.958 18.6714 127.657 18.7523 127.368 18.8101C127.056 18.8679 126.732 18.9142 126.409 18.9489C126.073 18.9951 125.738 19.0414 125.403 19.0992C125.091 19.157 124.779 19.2379 124.478 19.3304C124.177 19.4344 123.911 19.5732 123.68 19.735C123.461 19.8969 123.276 20.105 123.137 20.3709C123.006 20.6252 122.94 20.9455 122.94 21.3304C122.94 21.7154 123.01 22.0241 123.137 22.2669C123.276 22.5328 123.472 22.7293 123.692 22.8796C123.935 23.0184 124.212 23.1224 124.524 23.1802C124.84 23.2415 125.164 23.2727 125.495 23.2727C126.32 23.2727 126.956 23.134 127.403 22.8565C127.865 22.5906 128.189 22.2553 128.409 21.8738C128.625 21.4958 128.756 21.1108 128.802 20.7177C128.848 20.3246 128.871 20.0125 128.871 19.7813V18.2205ZM139.877 4.68252H144.051V25.6543H139.877V4.68252ZM113.229 4.68252H117.853V25.6543H113.229V16.602H104.732V25.6543H100.119V4.68252H104.732V12.729H113.229V4.68252ZM134.34 4.68252H138.525V25.6543H134.34V4.68252ZM49.9554 24.2438C50.0247 24.8681 50.1635 25.3421 50.36 25.6427H46.1286C46.0477 25.4115 45.9783 25.1803 45.9321 24.9259C45.8778 24.6797 45.8477 24.4323 45.8396 24.186C45.1691 24.8681 44.3829 25.3421 43.4812 25.6196C42.5794 25.8971 41.6545 26.0358 40.7065 26.0358C39.9897 26.0358 39.3192 25.9433 38.6833 25.7699C38.059 25.5965 37.5157 25.319 37.0416 24.9491C36.5676 24.5675 36.2093 24.1051 35.9318 23.5386C35.6693 22.9686 35.5387 22.29 35.5387 21.5039C35.5387 20.6483 35.689 19.9397 35.9896 19.3766C36.3017 18.8217 36.6833 18.3824 37.1688 18.0355C37.6544 17.7118 38.2058 17.4656 38.8221 17.2956C39.4383 17.1257 40.0591 16.995 40.6834 16.9026C41.3077 16.7985 41.932 16.7176 42.5447 16.6598C43.1459 16.602 43.6777 16.521 44.1517 16.3939C44.6257 16.2783 44.9957 16.1048 45.2731 15.8852C45.5506 15.6655 45.6778 15.3303 45.6546 14.9025C45.6546 14.4551 45.5818 14.0967 45.435 13.8273C45.2847 13.573 45.0881 13.3533 44.8454 13.2146C44.6026 13.0643 44.3136 12.9602 43.9898 12.914C43.6661 12.8677 43.3193 12.8446 42.9494 12.8446C42.125 12.8446 41.4776 13.0215 41.0071 13.3764C40.5366 13.7314 40.2637 14.3163 40.1863 15.1337H36.0127C36.0705 14.1626 36.3133 13.3418 36.7411 12.6943C37.1804 12.0469 37.7238 11.5382 38.3943 11.1451C39.0533 10.7521 39.8163 10.463 40.6371 10.3012C41.4811 10.1393 42.3135 10.0584 43.1574 10.0584C43.9205 10.0584 44.6951 10.1047 45.4812 10.2203C46.2558 10.3243 46.9726 10.5324 47.62 10.8446C48.2674 11.1683 48.7993 11.596 49.2155 12.151C49.6201 12.7059 49.8282 13.4574 49.8282 14.3707V22.2669C49.8282 22.9606 49.8629 23.608 49.9554 24.2438ZM45.6546 18.2205C45.4812 18.3824 45.2616 18.498 44.9957 18.5905C44.7263 18.6749 44.4407 18.7489 44.1401 18.8101C43.8396 18.8679 43.5158 18.9142 43.1806 18.9489C42.8453 18.9951 42.5216 19.0414 42.1863 19.0992C41.8707 19.1604 41.562 19.2379 41.2614 19.3304C40.9528 19.431 40.6869 19.5651 40.4637 19.735C40.2441 19.8969 40.0591 20.105 39.9204 20.3709C39.7816 20.6137 39.7123 20.9374 39.7123 21.3304C39.7123 21.7004 39.7816 22.0125 39.9204 22.2669C40.0591 22.5328 40.2441 22.7293 40.4753 22.8796C40.7065 23.0184 40.9955 23.1224 41.3077 23.1802C41.6198 23.238 41.9435 23.2727 42.2673 23.2727C43.0916 23.2727 43.732 23.134 44.1864 22.8565C44.6373 22.5906 44.9725 22.2553 45.1806 21.8738C45.3968 21.4958 45.5309 21.1108 45.5853 20.7177C45.6315 20.3246 45.6546 20.0125 45.6546 19.7813V18.2205ZM15.0872 17.5731H19.5613C19.4457 18.8795 19.1336 20.0703 18.648 21.1223C18.1624 22.186 17.515 23.0877 16.7057 23.8276C15.9046 24.5756 14.9635 25.1456 13.8848 25.5387C12.8097 25.9202 11.6189 26.1167 10.324 26.1167C8.71704 26.1167 7.27191 25.8393 5.98863 25.2843C4.70535 24.7294 3.61861 23.9548 2.73997 22.9721C1.84977 21.9894 1.17923 20.8449 0.705225 19.5269C0.242782 18.209 0 16.7754 0 15.2493C0 13.7233 0.242782 12.2319 0.705225 10.8908C1.17576 9.54972 1.85324 8.37859 2.73997 7.37624C3.61861 6.38199 4.70188 5.59931 5.98863 5.02935C7.27191 4.46285 8.71704 4.17383 10.324 4.17383C11.4801 4.17383 12.5784 4.34724 13.6074 4.67095C14.6363 5.00623 15.5496 5.49179 16.3705 6.12765C17.1878 6.76697 17.8584 7.55775 18.3821 8.49767C18.9139 9.43411 19.2376 10.5093 19.3763 11.7232H14.9138C14.8328 11.203 14.6594 10.7174 14.382 10.2781C14.1126 9.83066 13.7692 9.44221 13.353 9.1104C12.9449 8.7786 12.4779 8.52079 11.9541 8.33581C11.4339 8.15083 10.8905 8.05835 10.324 8.05835C9.28353 8.05835 8.40489 8.25488 7.67655 8.65952C6.95976 9.06416 6.37015 9.59597 5.9077 10.2781C5.46029 10.9567 5.13311 11.7232 4.92501 12.5787C4.72501 13.4423 4.62443 14.3325 4.62443 15.2493C4.62443 16.1661 4.72501 16.995 4.92501 17.8274C5.13311 18.6598 5.46029 19.4078 5.9077 20.0703C6.37015 20.7408 6.95976 21.2726 7.67655 21.6657C8.40489 22.0704 9.28353 22.2785 10.324 22.2785C11.7345 22.2704 12.8362 21.8391 13.6305 20.9836C14.4247 20.12 14.9103 18.9836 15.0872 17.5731ZM34.3248 14.1395C34.4947 14.9106 34.5791 15.7661 34.5791 16.706V25.6427H30.4056V17.4691C30.4056 16.2205 30.1975 15.284 29.816 14.6713C29.4229 14.0551 28.7258 13.7464 27.7234 13.7464C26.5824 13.7464 25.7615 14.0817 25.2609 14.7522C24.7441 15.4308 24.4863 16.5442 24.4863 18.0933V25.6427H20.3128V4.64783H24.4863V12.5787H24.5788C25.2262 12.07 25.7812 11.4573 26.602 11.0527C27.4263 10.6515 28.2321 10.4515 29.0183 10.4515C30.1281 10.4515 31.053 10.6018 31.7698 10.9139C32.4866 11.2145 33.0496 11.6342 33.4577 12.1741C33.8739 12.7175 34.1629 13.3649 34.3248 14.1395ZM68.2912 22.5097C68.4993 22.4866 68.7039 22.4553 68.9039 22.4172V25.6543C68.549 25.7086 68.1559 25.7468 67.7247 25.7699C67.2935 25.7849 66.8727 25.7965 66.4646 25.8046C65.8171 25.8046 65.2044 25.7468 64.6263 25.6658C64.0483 25.5734 63.5396 25.3999 63.1003 25.1456C62.661 24.8913 62.3107 24.5294 62.0482 24.0589C61.7939 23.5964 61.6667 22.9721 61.6667 22.2091V4.76344H65.8403V10.463H68.9039V13.2608H65.8403V20.7755C65.8403 21.4807 65.9674 21.9432 66.1986 22.186C66.4299 22.4172 66.9039 22.5328 67.6091 22.5328C67.8484 22.5328 68.075 22.5247 68.2912 22.5097ZM83.2628 15.6886C83.5322 16.7673 83.6293 17.8933 83.5518 19.0645H72.5804C72.6416 20.4206 72.985 21.4033 73.6093 22.0125C74.2417 22.6137 75.1434 22.9143 76.3146 22.9143C77.1585 22.9143 77.8869 22.7062 78.4881 22.29C79.1008 21.8623 79.4707 21.4229 79.6095 20.9489H83.2859C82.6963 22.7756 81.7945 24.0704 80.5806 24.8566C79.3667 25.6427 77.8869 26.0358 76.1643 26.0358C74.9735 26.0358 73.8983 25.8393 72.9388 25.4577C71.9757 25.0797 71.1583 24.5363 70.4878 23.8276C69.8288 23.1224 69.3086 22.2785 68.9502 21.3073C68.5918 20.3246 68.4068 19.2495 68.4068 18.0702C68.4068 16.891 68.5918 15.8817 68.9617 14.9025C69.3317 13.9198 69.8635 13.0758 70.5572 12.3591C71.2393 11.6423 72.0601 11.0873 73.0081 10.6711C73.9561 10.263 75.0082 10.0584 76.1643 10.0584C77.4591 10.0584 78.5921 10.3012 79.5517 10.7983C80.5112 11.307 81.2974 11.9775 81.9217 12.8099C82.5379 13.6504 82.9853 14.61 83.2628 15.6886ZM79.3783 16.4286C79.1817 15.3765 78.8349 14.5672 78.3378 14.0239C77.8291 13.4689 77.066 13.1915 76.0487 13.1915C75.3897 13.1915 74.8348 13.3071 74.3954 13.5383C73.9446 13.7579 73.5977 14.0354 73.3318 14.3707C73.0659 14.706 72.8694 15.0528 72.7653 15.4343C72.6613 15.7927 72.6035 16.1395 72.5804 16.4286H79.3783ZM93.5174 10.0584C93.7833 10.0584 94.0955 10.1047 94.4308 10.1971V14.0817C94.2308 14.0435 93.9949 14.0088 93.7255 13.9776C93.4481 13.9464 93.1822 13.9314 92.9278 13.9314C92.1648 13.9314 91.5174 14.0585 90.9856 14.3129C90.4538 14.5672 90.026 14.9141 89.7023 15.3534C89.3901 15.7927 89.1474 16.3129 89.0202 16.9026C88.8815 17.4806 88.8121 18.1165 88.8121 18.8101V25.6427H84.627V10.463H88.604V13.2839H88.6618C88.8583 12.8099 89.1242 12.3822 89.448 11.9775C89.7832 11.5729 90.1647 11.2376 90.6041 10.9486C91.0318 10.6711 91.4943 10.4515 91.9914 10.2896C92.477 10.1359 92.9856 10.0584 93.5174 10.0584ZM60.025 10.0584C60.3025 10.0584 60.6031 10.1047 60.9384 10.1971V14.0817C60.7384 14.0435 60.5025 14.0088 60.2331 13.9776C59.9557 13.9464 59.6898 13.9314 59.4354 13.9314C58.684 13.9314 58.025 14.0585 57.4932 14.3129C56.9729 14.5672 56.5452 14.9141 56.2215 15.3534C55.8977 15.7927 55.6665 16.3129 55.5278 16.9026C55.3891 17.4806 55.3313 18.1165 55.3313 18.8101V25.6427H51.1461V10.463H55.1116V13.2839H55.181C55.3775 12.8099 55.6318 12.3822 55.9671 11.9775C56.3024 11.5729 56.6839 11.2376 57.1232 10.9486C57.551 10.6711 58.0134 10.4515 58.499 10.2896C58.9845 10.1359 59.4932 10.0584 60.025 10.0584Z" fill="#2A6FBC"/>
</svg>
