<svg width="123" height="39" viewBox="0 0 123 39" fill="none" xmlns="http://www.w3.org/2000/svg">
<path d="M63.8858 9.71463H60.204L58.1271 13.0817H61.8074L63.8858 9.71463ZM73.4378 18.5745C71.5089 18.7341 68.1011 20.4596 66.2449 24.23C64.3888 28.0003 64.3821 30.3274 64.3821 30.3274C64.3821 30.3274 65.3611 29.2544 66.8618 28.1305C68.3625 27.0066 69.4793 26.6074 69.4793 26.6074C69.4793 26.6074 69.7579 25.2231 70.4506 23.7753C71.1244 22.3672 72.1939 20.901 73.5171 20.5684C76.1991 19.8931 74.9151 24.7888 72.945 27.9815C71.8862 29.6973 68.1301 34.6281 64.8963 34.6281C61.6625 34.6281 61.0385 31.5102 61.7204 28.5953C62.4019 25.6808 63.3447 21.9776 68.0625 15.2491C72.7802 8.52057 77.8865 4.53156 80.8421 2.85541C83.8781 1.13501 85.1149 1.88867 85.1149 1.88867C85.1149 1.88867 81.2393 4.27577 79.0348 7.14801C76.9269 9.89313 75.6687 12.982 76.6472 14.4954C77.5788 15.9377 80.862 15.9646 84.4777 10.7444C88.0467 5.59137 87.145 2.52689 87.145 2.52689C87.145 2.52689 87.5763 2.38653 87.8656 2.34737C89.6059 2.11599 91.0003 2.57469 93.1585 3.68179C95.42 4.84177 97.59 6.70202 100.563 8.2246C101.458 7.24362 102.454 6.20212 103.502 5.18555C99.4945 3.23478 96.4518 0.453561 92.5208 0.187085C89.0993 -0.044302 86.4015 1.20214 86.4015 1.20214C86.4015 1.20214 85.358 -0.219241 82.1384 0.24455C78.9188 0.708849 69.0002 4.85601 60.561 18.371C52.9308 30.5903 56.5257 37.5929 62.0103 37.5126C67.9557 37.4251 73.6117 30.813 75.5258 25.3604C77.44 19.9079 75.178 18.43 73.4372 18.5734L73.4378 18.5745ZM85.1093 7.22023C84.11 9.65615 82.6388 11.3582 81.1915 12.6581C79.3348 14.3256 78.3157 14.2696 77.8748 13.9345C76.7229 13.0573 78.2684 9.74921 80.9515 6.79102C83.6234 3.84452 85.9235 2.92762 85.9235 2.92762C85.9235 2.9622 86.3059 4.29967 85.1098 7.22023H85.1093ZM118.217 3.66806C115.496 5.41846 111.724 7.00308 108.104 6.65422C107.189 7.60468 106.207 8.70008 105.222 9.89821C111.505 11.1375 117.002 7.24514 119.928 3.92792C121.753 1.85968 122.654 0.0136719 122.654 0.0136719C122.654 0.0136719 120.912 1.93444 118.217 3.66806Z" fill="#F40009"/>
<path d="M115.244 19.0251H111.372L110.743 19.9974C110.743 19.9974 109.954 18.5725 108.616 18.5954C106.325 18.635 104.031 20.3844 101.366 23.4189C99.4125 25.6422 96.1746 30.5919 96.1746 30.5919C96.1746 30.5919 93.6899 34.4207 92.4333 34.1207C90.2908 33.6086 94.2315 25.6809 94.2315 25.6809C94.2315 25.6809 96.3033 24.4014 98.9879 22.1424C100.678 20.7206 102.623 18.7647 104.411 16.9518C106.037 15.3025 107.952 13.0634 109.774 10.6102C109.307 10.684 108.829 10.7338 108.342 10.7582C106.709 12.9119 104.965 14.8393 103.483 16.3715C101.276 18.6523 99.2452 20.5182 97.7699 21.7081C96.3562 22.8478 95.4495 23.3609 95.4495 23.3609C95.4495 23.3609 98.1463 17.8219 102.642 11.7021C107.137 5.58278 113.431 -0.101707 112.938 2.59509C112.797 3.3696 112.315 4.48026 111.589 5.7984C112.1 5.69161 112.597 5.55888 113.076 5.40733C114.159 3.17178 114.528 1.32933 113.72 0.796887C110.421 -1.3751 102.032 7.61288 97.8264 12.8331C93.6212 18.0533 89.8153 26.0313 89.8153 26.0313C89.8153 26.0313 89.1573 26.3074 88.43 26.4452C87.9713 26.5327 87.775 26.5134 87.7003 26.4839C87.6627 26.4686 87.6586 26.4427 87.6586 26.4427C87.6586 26.4427 91.3577 19.527 87.5706 18.6096C83.9157 17.7247 77.5828 24.4868 75.331 29.1903C73.7861 32.417 72.9144 36.4793 75.5639 37.4465C78.4336 38.4946 83.3075 33.2556 84.4532 31.7336C85.599 30.2105 87.0295 27.6789 87.0295 27.6789C87.0295 27.6789 87.7293 27.6418 88.1117 27.5859C88.8435 27.4781 89.1862 27.3881 89.1862 27.3881C89.1862 27.3881 88.7118 28.6304 88.1987 30.2059C87.2421 33.1432 86.3791 37.3458 89.8229 37.5437C92.0173 37.6688 95.2369 33.7057 95.2369 33.7057C95.2369 33.7057 94.3708 37.2294 97.2187 37.5437C99.321 37.775 102.381 34.527 102.381 34.527C102.381 34.527 101.714 37.3255 103.846 37.5721C105.671 37.7837 108.261 35.6437 110.385 33.2902C112.705 30.72 114.484 27.9052 114.484 27.9052H113.135C113.135 27.9052 110.15 32.4359 108.055 33.6482C106.334 34.6439 106.924 33.0486 107.445 32.2126C108.021 31.2906 115.243 19.0256 115.243 19.0261H115.245L115.244 19.0251ZM85.7455 27.5579C85.6926 27.6795 84.7233 29.3653 83.6869 30.691C82.5701 32.1195 80.5253 34.2697 79.2961 33.815C77.3748 33.1041 79.4889 28.9183 80.8716 26.8877C82.2543 24.857 82.4109 24.7197 82.4501 24.6668C82.4893 24.614 82.5279 24.5651 82.5615 24.6282C82.595 24.6913 83.0354 25.5253 83.904 26.2489C84.7762 26.9756 85.6153 27.3596 85.6829 27.3835C85.7505 27.4074 85.7994 27.4364 85.746 27.5574L85.7455 27.5579ZM86.61 26.0491C86.4884 26.251 86.402 26.2611 86.1497 26.194C85.7063 26.074 83.8684 25.2242 83.8827 23.3401C83.8954 21.5037 86.4844 19.705 87.4994 20.4734C88.4468 21.1905 87.9942 23.0237 87.6367 23.959C87.2802 24.8937 86.6893 25.9168 86.61 26.0491ZM104.199 30.5919C103.688 31.2932 103.26 31.9263 102.875 32.3708C102.05 33.3228 101.513 33.7657 101.033 33.8827C100.792 33.9411 100.492 33.9269 100.294 33.8069C99.5905 33.3787 100.083 31.7117 101.308 29.4705C102.429 27.4221 103.723 25.3727 105.852 23.0131C107.989 20.6443 108.806 20.5304 109.404 20.5573C109.908 20.5787 109.979 21.1081 109.979 21.1081C109.979 21.1081 109.943 21.2306 109.863 21.3695C109.158 22.5925 105.605 28.664 104.198 30.5919H104.198H104.199ZM47.0876 33.5546C44.7396 32.1038 41.7281 31.1731 38.2679 31.1426C29.3537 31.0648 19.6482 35.3956 13.0742 35.4546C5.32049 35.5222 4.93451 29.557 5.50916 26.2815C6.74593 19.2249 11.7515 12.4923 14.9696 8.94272C18.1886 5.39309 21.5613 2.63883 24.3654 1.9345C27.1695 1.23017 26.9061 3.36299 26.5628 3.65439C26.2084 3.66201 25.5289 3.7383 25.1435 4.00477C24.5398 4.42127 23.7333 5.18408 23.6829 6.3934C23.596 8.25619 26.0034 8.58267 27.7437 4.68215C28.9306 2.02146 27.048 0.215623 25.4847 0.0422101C23.3402 -0.196805 20.0631 0.548718 16.1509 3.06244C9.34255 7.43845 0.235575 17.1542 0.0031709 27.9337C-0.12905 34.083 3.88793 37.5431 9.39951 37.5431C14.9111 37.5431 22.3943 34.1679 29.701 34.0815C34.225 34.0428 37.1532 35.6285 38.6361 38.2109C38.6361 38.2109 40.1099 35.7597 43.3915 35.6285C46.638 35.4978 50.2126 36.4076 53.1464 38.4702C52.1674 37.056 49.4004 34.9842 47.0866 33.5546H47.0871H47.0876Z" fill="#F40009"/>
<path d="M26.787 9.33771C23.0502 8.38521 16.844 14.7466 14.2291 19.924C12.6165 23.1177 11.9091 27.1311 14.7803 28.1751C17.6516 29.2192 22.5234 23.9842 23.6691 22.4622C24.8149 20.9391 26.6904 17.8894 26.6904 17.8894C26.6904 17.8894 27.2655 17.7785 27.6429 17.691C28.0202 17.6036 28.629 17.4296 28.629 17.4296C28.629 17.4296 27.9226 18.6888 27.2849 19.9795C26.5292 21.5097 24.4752 26.6037 28.4408 28.1314C32.2294 29.5909 37.623 23.5047 37.9063 23.3898C37.9063 23.3898 36.3008 27.5369 38.7947 28.1751C41.5312 28.8749 44.5301 25.369 44.5301 25.369C44.5301 25.369 43.8984 28.0007 46.0308 28.2479C49.8489 28.6898 56.6029 18.9232 56.6029 18.9232H55.2537C55.2537 18.9232 51.817 23.346 50.1637 24.2594C48.5104 25.1727 49.1054 23.5494 49.5545 22.8237C50.1276 21.9002 57.4287 9.7003 57.4287 9.7003H53.5567L53.1076 10.4107C53.1076 10.4107 52.3097 9.19278 50.9763 9.27974C47.0957 9.53299 42.4786 15.7179 40.448 18.4442C38.4179 21.171 34.0388 26.3764 31.7326 25.4488C29.2199 24.4374 31.7183 19.7933 33.3711 17.067C35.1703 14.0992 38.3599 11.1593 39.6211 11.1364C41.1727 11.1074 40.5634 12.5141 40.5634 12.5141C40.5634 12.5141 39.4034 12.3691 38.5623 13.4274C37.9673 14.176 37.4745 15.2688 38.04 15.8633C38.9534 16.824 40.1434 15.8486 40.8533 14.7608C43.068 11.3709 41.4478 9.58436 39.7081 9.32347C36.0018 8.76713 32.588 13.5286 29.9924 15.2978C28.1916 16.5244 27.4395 16.4288 27.4395 16.4288C27.4395 16.4288 30.5634 10.3004 26.787 9.33771ZM43.5648 20.3009C44.6857 18.252 46.2118 16.2737 48.1987 13.7941C50.1856 11.3144 51.1742 11.1135 51.7722 11.141C52.2757 11.1634 52.3469 11.6918 52.3469 11.6918C52.3469 11.6918 48.0303 19.2131 46.464 21.3591C45.953 22.0604 45.5151 22.6539 45.1296 23.0994C44.3053 24.0514 43.7067 24.5116 43.2445 24.626C43.0029 24.685 42.7034 24.6703 42.5045 24.5497C41.8012 24.1215 42.3377 22.5415 43.5633 20.3009H43.5638H43.5648ZM25.2451 17.8604C25.1917 17.9809 23.959 20.0196 22.9226 21.3454C21.8063 22.7739 19.7432 24.9327 18.514 24.478C16.5928 23.7671 18.6422 19.6103 20.0244 17.5802C21.4066 15.5496 21.6095 15.2887 21.6487 15.2363C21.6873 15.1829 21.7255 15.1341 21.7596 15.1976C21.7936 15.2607 22.2335 16.1649 23.1855 16.7736C24.138 17.3829 25.1144 17.6631 25.182 17.687C25.2497 17.7109 25.2985 17.7404 25.2451 17.8609H25.2446L25.2451 17.8604ZM26.8521 14.6871C26.4946 15.6228 26.1757 16.2122 26.1096 16.3515C26.0039 16.5748 25.7384 16.5031 25.7384 16.5031C25.4358 16.4893 23.0843 15.9528 23.098 14.0687C23.1108 12.2323 25.7003 10.4336 26.7148 11.202C27.6622 11.9191 27.2096 13.7524 26.8521 14.6871ZM112.331 35.308C112.105 35.1798 111.854 35.1162 111.577 35.1162C111.301 35.1162 111.049 35.1803 110.823 35.308C110.597 35.4361 110.42 35.61 110.29 35.8307C110.16 36.0514 110.095 36.2915 110.095 36.5503C110.095 36.8092 110.159 37.0538 110.29 37.273C110.419 37.4916 110.597 37.6656 110.823 37.7927C111.049 37.9208 111.301 37.9844 111.577 37.9844C111.854 37.9844 112.105 37.9203 112.331 37.7927C112.558 37.665 112.735 37.4916 112.865 37.273C112.994 37.0543 113.06 36.8132 113.06 36.5503C113.06 36.2874 112.995 36.0514 112.865 35.8307C112.736 35.61 112.558 35.4361 112.331 35.308ZM112.597 37.1443C112.499 37.3192 112.361 37.4565 112.184 37.5572C112.007 37.6569 111.805 37.7067 111.577 37.7067C111.35 37.7067 111.147 37.6569 110.971 37.5572C110.794 37.4576 110.656 37.3203 110.558 37.1443C110.46 36.9694 110.41 36.771 110.41 36.5503C110.41 36.3296 110.46 36.1369 110.558 35.9619C110.656 35.787 110.794 35.6497 110.973 35.549C111.151 35.4483 111.353 35.3995 111.577 35.3995C111.801 35.3995 112.002 35.4493 112.181 35.549C112.359 35.6487 112.498 35.786 112.596 35.9619C112.694 36.1369 112.743 36.3332 112.743 36.5503C112.743 36.7675 112.694 36.9694 112.596 37.1443H112.597Z" fill="#F40009"/>
<path d="M112.134 36.5269C112.176 36.4587 112.197 36.382 112.197 36.2986C112.197 36.1826 112.16 36.086 112.084 36.0072C112.009 35.9283 111.909 35.8887 111.782 35.8887H111.031V37.1865H111.362V36.7135H111.614L111.919 37.1865H112.297L111.956 36.682C112.033 36.6469 112.093 36.595 112.134 36.5269ZM111.819 36.3901C111.795 36.413 111.761 36.4242 111.719 36.4242H111.362V36.1724H111.719C111.761 36.1724 111.795 36.1841 111.819 36.2065C111.843 36.2294 111.856 36.2599 111.856 36.298C111.856 36.3362 111.844 36.3672 111.819 36.3896V36.3901Z" fill="#F40009"/>
</svg>
