<svg width="83" height="83" viewBox="0 0 83 83" fill="none" xmlns="http://www.w3.org/2000/svg">
<path d="M83 41.5C83 64.4191 64.4191 83 41.5 83C18.5809 83 0 64.4191 0 41.5C0 18.5809 18.5809 0 41.5 0C64.4191 0 83 18.5809 83 41.5Z" fill="#002148"/>
<path d="M37.8812 9.96094C36.7413 9.96094 35.8228 10.8795 35.8228 12.0193V29.6375C35.8228 30.7773 36.7413 31.6959 37.8812 31.6959C39.0211 31.6959 39.9396 30.7773 39.9396 29.6375V12.0193C39.9396 10.8795 39.0211 9.96094 37.8812 9.96094ZM51.6703 9.96094C50.5304 9.96094 49.6119 10.8795 49.6119 12.0193V37.5501C49.6119 38.69 50.5304 39.6085 51.6703 39.6085C52.8101 39.6085 53.7287 38.69 53.7287 37.5501V12.0193C53.7287 10.8795 52.8101 9.96094 51.6703 9.96094ZM24.0921 19.8435C22.9523 19.8435 22.0337 20.762 22.0337 21.9019V33.5993C22.0337 34.7281 22.9523 35.6577 24.0921 35.6577C25.232 35.6577 26.1505 34.7392 26.1505 33.5993V21.9019C26.1505 20.762 25.232 19.8435 24.0921 19.8435ZM58.5648 19.8435C57.4249 19.8435 56.5064 20.762 56.5064 21.9019V33.5993C56.5064 34.7281 57.4249 35.6577 58.5648 35.6577C59.7047 35.6577 60.6232 34.7392 60.6232 33.5993V21.9019C60.6232 20.762 59.7047 19.8435 58.5648 19.8435ZM30.9867 13.9117C29.8468 13.9117 28.9283 14.8303 28.9283 15.9701V31.6184C28.9283 32.7583 29.8468 33.6768 30.9867 33.6768C32.1265 33.6768 33.0451 32.7583 33.0451 31.6184V15.9701C33.0451 14.8303 32.1265 13.9117 30.9867 13.9117ZM44.7868 15.8927C43.6469 15.8927 42.7284 16.8112 42.7284 17.9511V35.5803C42.7284 36.7091 43.6469 37.6387 44.7868 37.6387C45.9267 37.6387 46.8452 36.7201 46.8452 35.5803V17.9511C46.8452 16.8112 45.9267 15.8927 44.7868 15.8927ZM53.8947 43.8028C53.8947 45.0312 52.8987 46.0272 51.6703 46.0272C50.4419 46.0272 49.4459 45.0312 49.4459 43.8028C49.4459 42.5744 50.4419 41.5784 51.6703 41.5784C52.8987 41.5784 53.8947 42.5744 53.8947 43.8028ZM68.4252 56.7951C68.4252 54.5928 66.8095 52.7557 64.5408 52.7557C62.2721 52.7557 60.6896 54.5596 60.6896 56.7508V56.784C60.6896 58.9863 62.3053 60.8233 64.574 60.8233C66.8427 60.8233 68.4252 59.0195 68.4252 56.8283V56.7951ZM64.5408 63.424C60.5789 63.424 57.7348 60.4692 57.7348 56.8172V56.784C57.7348 53.132 60.6121 50.144 64.574 50.144C68.5359 50.144 71.38 53.0988 71.38 56.7508V56.784C71.38 60.436 68.5027 63.424 64.5408 63.424ZM52.8876 54.7588C52.8876 53.5525 52.0465 52.9217 50.6743 52.9217H47.8633V56.6069H50.7185C52.0908 56.6069 52.8765 55.8765 52.8765 54.792V54.7588H52.8876ZM52.8323 63.2137L50.0767 59.108H47.8633V63.2137H45.0413V50.3764H50.9067C53.9279 50.3764 55.7428 51.97 55.7428 54.6149V54.6592C55.7428 56.7287 54.6251 58.0345 52.9872 58.6432L56.1301 63.2248H52.8323V63.2137ZM38.6005 63.2027V50.3653H41.4225V63.2027H38.6005ZM30.7653 63.3908C28.8176 63.3908 26.8588 62.7157 25.3205 61.3324L26.9916 59.3293C28.1425 60.2811 29.3599 60.8897 30.8317 60.8897C31.9827 60.8897 32.6799 60.4249 32.6799 59.6835V59.6503C32.6799 58.9309 32.2372 58.5657 30.0903 58.0124C27.5117 57.3484 25.8407 56.6291 25.8407 54.0837V54.0505C25.8407 51.7265 27.7109 50.1772 30.3337 50.1772C32.204 50.1772 33.8087 50.7637 35.1035 51.8151L33.6316 53.9399C32.4917 53.1541 31.374 52.6672 30.2895 52.6672C29.2049 52.6672 28.6405 53.1652 28.6405 53.7849V53.8292C28.6405 54.6703 29.1939 54.9469 31.4072 55.5113C34.0079 56.1975 35.4797 57.1271 35.4797 59.3625V59.3957C35.4797 61.9521 33.532 63.3797 30.7653 63.3797M18.2047 63.424C14.4309 63.424 11.62 60.5024 11.62 56.8172V56.784C11.62 53.132 14.3756 50.144 18.3153 50.144C20.7389 50.144 22.1887 50.9519 23.3839 52.1249L21.5911 54.1944C20.5951 53.298 19.588 52.7447 18.3043 52.7447C16.1463 52.7447 14.5859 54.5485 14.5859 56.7397V56.7729C14.5859 58.9752 16.1131 60.8123 18.3043 60.8123C19.7761 60.8123 20.6725 60.2257 21.6796 59.3072L23.4724 61.1221C22.1555 62.5276 20.6836 63.4129 18.2047 63.4129" fill="white"/>
</svg>
