<svg width="138" height="47" viewBox="0 0 138 47" fill="none" xmlns="http://www.w3.org/2000/svg">
<path d="M40.9463 0C43.5258 0.241505 46.1779 0.530421 48.5055 1.84907C52.3207 4.00927 51.571 6.73694 48.1574 8.76677C42.6546 12.0382 31.2328 13.0487 25.0914 11.6322C24.3758 11.4663 23.7091 11.2011 23.0201 10.964C22.1386 13.1613 20.9577 15.9823 23.2661 17.7543C23.9328 18.2655 26.0293 19.1855 26.8353 19.2285C27.5198 19.2656 30.6179 18.2195 31.6091 18.0002C34.482 17.3632 42.8013 15.8475 44.9985 17.9499C46.8535 19.7234 42.6739 20.7783 41.5656 20.9916C39.3684 21.4169 36.5992 21.4598 34.3545 21.3339C32.9055 21.2524 29.9171 20.4657 28.7614 20.6257C27.4724 20.8035 24.3803 22.2021 23.0661 22.7903C19.1175 24.5609 14.929 26.9907 11.4146 29.511C8.0009 31.9601 -3.03275 40.5106 3.80198 44.625C8.76986 47.6149 20.6703 45.76 26.0604 44.0087C32.9129 41.7833 45.0474 34.7589 36.7177 26.8204L33.2418 24.4468C36.337 24.432 42.1153 25.0039 43.4339 28.4027C45.4015 33.4773 37.8601 39.3356 34.0819 41.5107C27.1879 45.4799 11.4575 49.0388 4.10275 45.6592C-5.42409 41.281 3.95755 30.88 8.95655 27.0515C13.5007 23.5712 19.4405 20.8213 25.0944 19.8523C25.1522 19.473 25.0633 19.6211 24.8855 19.5426C24.4751 19.3604 24.0587 19.2833 23.6098 19.0418C19.7754 16.9824 18.2582 13.5702 20.5028 9.54907C20.0347 8.78158 18.8745 8.7964 19.1694 7.55628L21.0229 8.55786C24.0024 4.27893 28.9925 1.92463 33.9827 0.813412C35.7221 0.426708 38.0305 0.035559 39.7625 0H40.9478L40.9463 0ZM40.4722 2.26688C34.5946 2.70693 27.4694 5.42719 23.7624 10.1491C23.7595 10.3017 24.9788 10.7092 25.2085 10.7744C30.6594 12.333 44.5689 11.0618 49.0167 7.25551C49.9175 6.48359 50.5591 5.68351 50.0079 4.49377C48.8093 1.90241 42.8709 2.08761 40.4707 2.26688H40.4722ZM29.9838 19.8523C33.8508 20.5457 38.2512 20.8124 42.1049 19.9012C42.8191 19.7323 43.6828 19.5767 44.2029 19.0389C43.5006 18.2921 42.1642 18.138 41.1745 18.0699C37.989 17.8506 34.0523 18.5751 30.9868 19.4508C30.7142 19.5278 30.1186 19.6182 29.9838 19.8523Z" fill="#713332"/>
<path d="M49.8331 40.5961L50.0687 41.3339C48.5396 42.6778 45.8683 45.9862 43.791 46.1951C40.3981 46.5344 41.5627 42.0021 42.0249 40.1205C42.3879 38.6418 42.9109 37.1261 43.4651 35.7097L41.4619 37.3365C41.1523 37.4047 41.0293 36.9454 41.0871 36.692L43.8785 34.2681C46.8624 26.6836 50.2257 19.2162 54.1076 12.0496C55.5996 9.29529 58.9377 2.88431 61.2416 1.10784C62.3587 0.247015 63.7381 0.0292165 64.0241 1.73901C65.2375 8.98563 56.4308 20.4223 52.0555 25.851C49.6864 28.789 48.1515 29.8528 46.7232 33.5569C45.9572 35.5408 43.8088 41.3517 43.7762 43.2082C43.7614 44.0897 44.1511 44.5446 45.0252 44.4557C46.3276 44.3238 48.6656 41.3813 49.8361 40.5976L49.8331 40.5961ZM62.8566 1.94496C61.9987 1.39231 60.6549 3.58956 60.2934 4.15998C57.6338 8.37224 54.9684 14.4558 52.8201 19.0592C51.4007 22.0995 50.0465 25.1827 48.8004 28.2986C52.0526 24.842 55.0869 20.9246 57.6027 16.8782C59.5703 13.7105 61.898 9.48049 62.7158 5.84163C62.8684 5.16452 63.4344 2.31684 62.8566 1.94496Z" fill="#713332"/>
<path d="M136.015 26.1727C134.846 27.358 133.535 27.5669 132.068 28.081C131.926 28.1314 131.727 28.0988 131.771 28.2973C134.378 29.5759 136.885 33.1437 137.505 35.9736C138.763 41.7193 133.806 38.1116 131.7 36.4448C129.334 34.5705 127.272 32.2488 125.106 30.1523C126.092 29.3004 127.752 30.1419 128.844 30.5597C129.699 30.8872 130.516 31.2857 131.324 31.708L129.844 28.5981C130.054 28.5907 131.789 28.2499 131.622 28.0054C130.951 27.7669 130.376 27.312 129.752 26.9846C129.342 26.7683 128.408 26.546 128.112 26.3282C127.565 25.9252 126.765 24.2184 126.002 23.7621C127.221 21.953 129.876 19.5557 132.134 19.4076C135.63 19.1779 138.818 23.3324 136.015 26.1756V26.1727Z" fill="#713332"/>
<path d="M68.801 31.8565L68.1062 33.0507C66.9727 32.8581 65.9163 32.4551 64.7384 32.6092C61.8359 32.9885 57.354 37.8304 55.7302 40.1936C55.0679 41.1582 53.7344 42.9732 54.7226 44.0814C55.6161 45.083 57.3836 43.8607 58.2697 43.3243C62.7723 40.5966 66.7564 36.294 69.7789 32.0329C70.3775 32.2032 70.9301 31.9173 71.545 32.0032C71.7169 32.0269 71.8399 31.938 71.7584 32.2181C71.5154 33.0507 70.4412 34.6405 69.9315 35.4302C68.5743 37.5326 66.7253 39.5239 65.4792 41.6456C65.057 42.3657 64.0332 43.7673 64.8999 44.4296C65.903 44.76 69.6796 41.9938 70.6545 41.3389C71.0072 41.2011 70.8916 41.8679 70.8412 42.0472C69.0381 42.9139 65.6304 46.2964 63.6924 46.2342C63.0657 46.2135 62.1678 45.7497 62.0167 45.086C61.5826 43.1924 63.842 40.5892 64.8733 39.1165C64.9577 38.9965 65.2703 38.8276 65.0214 38.672C62.4938 40.5789 57.3096 46.3053 54.0633 46.2313C52.2498 46.1913 51.3001 44.6311 51.8364 42.9687C52.601 40.5937 56.505 36.6689 58.5067 35.1191C61.5026 32.7989 64.8762 31.0091 68.7996 31.8565H68.801Z" fill="#713332"/>
<path d="M89.8387 40.8935L89.6906 41.7069C87.8489 42.9974 84.4931 46.6866 82.0958 46.1933C80.2808 45.8199 80.7905 43.8197 81.4246 42.6255C82.598 40.412 87.64 35.7063 87.6311 33.5595C87.6222 31.3237 84.3064 34.2321 83.5493 34.8233C81.8972 36.1108 80.2512 37.6013 78.728 39.04C76.5204 41.1231 74.3913 43.3426 72.5912 45.7932L70.7288 45.9295C72.2193 41.0017 76.3767 37.425 78.2762 32.6616C78.3888 32.5342 80.5445 31.7963 80.8808 31.7089C81.1861 31.6304 81.0809 31.6793 81.026 31.8541C80.6897 32.9268 80.1371 33.9136 79.6437 34.9181L75.4714 41.338C76.0256 40.7898 76.6849 40.3097 77.2494 39.7838C79.3651 37.8191 84.7746 31.6067 87.5511 31.5533C89.1009 31.5237 89.6891 32.589 89.5439 34.0039C89.2891 36.4975 85.342 40.2253 83.8811 42.4151C83.5255 42.947 82.3077 44.605 83.6959 44.7457C85.0842 44.8865 89.6224 40.5986 89.8387 40.892V40.8935Z" fill="#713332"/>
<path d="M102.694 31.7457C105.702 31.3338 108.113 33.1369 107.249 36.3002C106.238 39.9939 100.782 45.7485 96.8612 46.2107C93.7454 46.5782 90.7866 44.9128 92.0815 41.431C93.3853 37.924 98.8985 32.2657 102.694 31.7457ZM104.902 32.9428C104.4 32.4316 103.336 32.3694 102.668 32.4613C99.8571 32.845 95.0122 39.3775 94.2758 41.997C93.8239 43.6075 94.2343 45.301 96.1323 45.3484C99.503 45.4314 103.77 39.1449 104.874 36.2972C105.256 35.3119 105.755 33.814 104.901 32.9428H104.902Z" fill="#713332"/>
<path d="M124.775 25.1539L121.25 24.7435L122.569 27.0415L120.298 28.4298C116.856 27.9883 113.297 26.0029 115.397 22.0722C117.06 18.9578 120.244 19.2423 122.868 20.9773C123.408 21.3343 125.538 23.09 125.78 23.5582C125.839 23.6723 125.881 23.7405 125.78 23.8531L124.777 25.1554L124.775 25.1539Z" fill="#713332"/>
<path d="M112.066 40.7443L119.173 32.3702C122.744 30.2085 122.062 34.969 120.959 36.8225L118.437 38.2256C118.658 37.6507 120.065 34.4771 119.235 34.2341C118.511 34.0207 116.637 36.3335 116.137 36.8921C113.693 39.6346 111.417 42.5682 109.62 45.7833L107.621 46.0797C106.984 45.4648 112.783 34.563 112.682 32.7702L115.401 31.859C115.528 32.8413 115.005 33.8963 114.656 34.8178C113.894 36.8314 112.832 38.7338 112.066 40.7458V40.7443Z" fill="#713332"/>
</svg>
