<svg width="93" height="59" viewBox="0 0 93 59" fill="none" xmlns="http://www.w3.org/2000/svg">
<path d="M37.815 15.7043C38.3236 15.5765 38.3962 15.9136 38.6897 16.1402C40.3897 17.4421 41.8165 19.6855 43.6298 20.9409C43.6676 20.2231 43.7374 19.6971 43.3567 19.0346C43.0225 18.4505 38.187 14.2485 38.3962 13.9637L44.4638 13.3389C47.9016 -0.321955 67.3453 -4.39609 76.7867 5.37951L69.5945 9.54664C67.9003 9.09912 66.8687 8.29418 65.0205 8.13144C60.3216 7.72171 56.7502 9.41297 54.3993 13.5249L55.2653 14.1032C54.1842 15.0854 53.3154 15.8816 53.2311 17.4479L55.5558 15.7043V22.6844L53.5217 22.5362C55.6459 29.8214 63.585 32.4223 69.8066 28.2057L69.6293 27.61L66.3195 26.0321L72.1372 20.6503V29.3768L73.2996 29.6674V20.0691L79.6985 23.5649C79.806 24.0095 79.6316 24.0299 79.3904 24.2682C78.6145 25.0411 73.2996 29.403 73.3054 29.8127L73.8807 30.4113L79.6985 25.5962V34.9039L76.9349 32.5821C66.4473 43.677 45.5332 37.8709 43.9059 22.1207L37.8121 22.6873V15.7072L37.815 15.7043Z" fill="#002148"/>
<path d="M21.7509 15.9274C21.5097 16.1686 16.7789 17.9471 15.8955 18.3626C14.8784 18.8392 13.1551 20.1178 12.3531 20.3503C11.8068 20.5072 11.9695 20.266 11.9259 19.926C11.4406 16.2064 13.0883 11.1239 15.1806 8.04939C21.5679 -1.33972 37.2425 -2.88568 45.0828 5.37883L37.8906 9.54596C36.3998 9.26118 35.1648 8.31384 33.5985 8.13948C28.7252 7.59316 25.116 9.34254 22.7302 13.5649C22.4048 14.1403 21.9631 15.7153 21.7509 15.9303V15.9274Z" fill="#002148"/>
<path d="M20.3619 29.6673C19.8533 29.7951 19.7807 29.458 19.4872 29.2314C17.6884 27.854 15.7472 25.4972 13.9717 23.9716C13.8642 23.559 14.2332 23.5037 14.4425 23.3091C15.0004 22.786 19.3274 20.1474 19.926 20.0602C20.5246 19.973 20.3096 20.1125 20.3648 20.4932C20.7571 23.2393 20.0742 26.8194 20.3648 29.6644C20.4345 29.6033 20.7803 29.6673 20.9518 29.5249L21.3819 20.6501L27.0514 26.029L24.7353 27.482C28.4724 30.9459 34.0285 31.1435 38.0794 28.0603L45.3821 31.9978C45.8325 32.6488 42.0402 35.3339 41.4009 35.7174C36.5015 38.6466 29.7277 38.9401 24.3663 37.1588C21.5853 36.2347 19.1559 34.5318 16.9823 32.6052L13.6782 34.9038V25.596C14.1867 25.4682 14.2594 25.8053 14.5529 26.0319C16.0582 27.1856 17.6216 29.1994 19.1995 30.4083C19.7197 30.6408 20.0829 29.9143 20.3677 29.6702L20.3619 29.6673Z" fill="#002148"/>
<path d="M9.30768 1.15949V21.9574L0.290527 29.0827V1.30479L0.726419 0.929921C0.845563 0.921203 0.944366 1.15949 1.01701 1.15949H9.30768Z" fill="#002148"/>
<path d="M50.6129 43.6285V57.8822L48.6368 57.8182L40.1398 45.6656V57.8822H38.684V43.6285L40.8605 43.9249C43.5282 47.4149 45.8123 51.4513 48.4886 54.8977C48.6775 55.1389 48.4799 55.4266 49.1541 55.2639V43.3379L50.61 43.6285H50.6129Z" fill="#002148"/>
<path d="M23.5613 57.8826V43.6289H30.396C30.6285 43.6289 32.2006 44.4542 32.5523 44.6721C37.3994 47.6449 36.7688 55.1103 31.4712 57.2142C31.201 57.3217 29.347 57.8826 29.2308 57.8826H23.5583H23.5613ZM25.0171 56.4296H29.5272C30.5849 56.4296 33.055 54.5291 33.5693 53.4917C36.5131 47.5636 30.428 43.7684 25.0171 44.7942V56.4296Z" fill="#002148"/>
<path d="M63.4134 43.6289V44.7942H55.8492V49.7401H62.8322V50.9025H55.8492V56.4296H63.4134V57.8826H54.3962V43.6289H63.4134Z" fill="#002148"/>
<path d="M9.01715 45.0792C7.44504 46.1863 7.38111 44.992 6.11992 44.6404C4.20781 44.1057 2.07485 44.7508 2.01382 46.9738C1.91502 50.5394 7.93324 49.2579 9.08399 52.7247C10.7898 57.8624 2.46424 60.2889 0 55.8515L1.26699 55.2965C3.0774 57.4614 7.79375 57.4062 7.58162 53.9626C7.36948 50.5191 1.42682 51.9633 0.427174 48.2931C-0.950245 43.2339 6.50932 41.2724 9.01715 45.0792Z" fill="#002148"/>
<path d="M12.7977 35.7753C12.3241 35.8858 12.1236 35.6794 11.7719 35.4906C9.95572 34.5229 7.63968 32.1487 5.82927 30.9427C5.71594 30.4081 10.1737 26.4647 10.9147 25.8893C11.214 25.6568 12.7977 24.2387 12.7977 25.1541V35.7724V35.7753Z" fill="#002148"/>
<path d="M80.8666 24.7207C81.9796 25.4588 87.8583 30.0473 87.8525 30.9714L80.8666 36.0655V24.7207Z" fill="#002148"/>
<path d="M70.9748 57.8822H69.519V51.6286C69.519 51.0416 63.8989 43.9162 64.2825 43.6314C64.9392 43.6314 65.6017 43.4745 66.1946 43.8987C67.0344 44.5003 69.7166 50.0419 70.2455 50.0216L74.2179 43.675L76.2055 43.3379C76.5746 43.7767 70.9719 51.0474 70.9719 51.6286V57.8822H70.9748Z" fill="#002148"/>
<path d="M15.416 51.6273L10.1824 43.6301C10.6037 43.6592 11.089 43.5488 11.49 43.6301C12.3328 43.7958 14.9278 48.576 15.6397 49.6512C15.7502 49.8169 15.5991 50.2034 16.1396 50.0319C16.4825 49.9215 19.4059 44.6763 19.9202 43.9178L21.812 43.633C21.7161 44.9756 16.869 50.8805 16.869 51.3396V57.8838H15.4131V51.6302L15.416 51.6273Z" fill="#002148"/>
<path d="M11.6354 37.2289H0.581146C0.70029 36.3193 4.44024 31.8005 4.79477 31.7715C6.58483 33.2855 9.59249 34.7995 11.1937 36.36C11.4814 36.6389 11.74 36.7436 11.6354 37.2289Z" fill="#002148"/>
<path d="M36.9433 14.2498V22.6858C36.4348 22.8136 36.3621 22.4765 36.0686 22.2499C33.9589 20.6342 31.9131 17.798 29.6756 16.1387C29.6639 15.6301 36.0454 14.1481 36.9433 14.2469V14.2498Z" fill="#002148"/>
<path d="M92.7927 37.2284H82.1743C82.122 37.2284 81.66 36.7663 81.7384 36.653L88.5732 31.7129C88.8725 31.7129 92.1708 35.665 92.5108 36.1997C92.7404 36.56 92.8769 36.7663 92.7898 37.2284H92.7927Z" fill="#002148"/>
<path d="M65.1572 16.2852C66.0668 16.7152 71.8467 18.6913 71.8409 19.3393C69.7486 20.8126 67.9731 23.3815 66.0319 24.8693C65.7384 25.0931 65.6658 25.4302 65.1572 25.3052V16.2881V16.2852Z" fill="#002148"/>
<path d="M56.7241 14.248L63.7071 15.8521C63.6868 16.7588 57.7354 21.7541 56.7241 22.684V14.248Z" fill="#002148"/>
<path d="M28.2166 25.3023C27.2606 24.477 21.8148 19.9002 21.8148 19.0516L28.2166 16.2852V25.3023Z" fill="#002148"/>
<path d="M29.3792 17.4492L35.4875 23.264L29.3792 25.0134V17.4492Z" fill="#002148"/>
<path d="M63.9947 25.0134L58.177 23.264L63.9947 17.4492V25.0134Z" fill="#002148"/>
</svg>
