<svg width="179" height="34" viewBox="0 0 179 34" fill="none" xmlns="http://www.w3.org/2000/svg">
<path d="M91.4311 17.5624V29.1707H86.9121V18.5574C87.0779 17.2473 86.141 16.045 84.8309 15.8792C84.6402 15.8543 84.4578 15.8543 84.2671 15.8792C83.5706 15.8958 82.8824 16.0202 82.2356 16.2689V29.2039H77.6918V13.4C79.8974 12.4464 82.2605 11.9158 84.6651 11.8494C89.3001 11.8494 91.4311 14.1711 91.4311 17.5624ZM159.041 18.9803L156.554 18.1511C155.559 17.7946 155.202 17.3717 155.202 16.8908C155.202 16.2109 155.882 15.7299 157.142 15.7299C158.585 15.7797 159.986 16.1777 161.238 16.8908L163.237 13.3419C161.346 12.3469 159.24 11.8329 157.109 11.8246C153.395 11.8246 150.526 14.0136 150.526 17.181C150.526 20.3484 152.748 21.6336 154.804 22.3301L156.96 23.0432C158.088 23.4329 158.618 23.7563 158.618 24.4611C158.618 25.1658 158.038 25.6551 156.521 25.6551C154.953 25.6136 153.436 25.1576 152.101 24.3367L150.161 27.9187C152.118 29.0215 154.332 29.5936 156.579 29.577C160.36 29.577 163.361 27.446 163.361 24.0548C163.361 21.1776 161.595 19.8509 159.041 18.9803ZM58.9029 25.6136C57.9991 25.6136 57.6094 25.1575 57.6094 24.0962V5.9375H53.0905V25.4063C53.0905 28.2089 54.8317 29.5521 57.485 29.5521C58.6624 29.5521 59.8233 29.3614 60.9344 28.9717L60.4534 25.3814C59.9477 25.5307 59.4253 25.6136 58.9029 25.6302V25.6136ZM103.396 5.9375H107.915V28.043C105.742 29.0132 103.388 29.519 101.008 29.5355C96.3314 29.5355 94.0678 26.7247 94.0678 23.3334V17.6868C94.0678 14.3038 96.3314 11.8826 100.237 11.8826C101.306 11.8826 102.376 12.0484 103.396 12.3718V5.9375ZM103.396 16.1031C102.699 15.8626 101.97 15.7382 101.232 15.7216C99.9134 15.7216 98.5868 16.4928 98.5868 18.5906V22.6866C98.5868 24.9503 100.071 25.6302 101.563 25.6302C102.185 25.6302 102.807 25.5224 103.396 25.3068V16.1031ZM75.2872 18.6818V22.1726H66.2908V22.4628C66.1415 24.0631 67.3272 25.4809 68.9275 25.6219C69.085 25.6385 69.2426 25.6385 69.4001 25.6219C70.8926 25.6053 72.352 25.1907 73.6289 24.4279L74.8809 28.0099C73.0568 29.0463 70.9755 29.577 68.8778 29.5273C65.2377 29.5273 61.7469 27.5538 61.7469 22.554V19.0051C61.7469 14.6189 64.392 11.8412 68.5876 11.8412C73.007 11.8412 75.2623 14.7764 75.2623 18.6735H75.2872V18.6818ZM70.9258 18.4911C70.9258 16.8825 70.1878 15.7548 68.6705 15.7548C67.1531 15.7548 66.3488 16.8825 66.3488 18.4911V18.7813H70.9258V18.4911ZM116.663 25.6302C115.759 25.6302 115.369 25.1741 115.369 24.1128V5.9375H110.858V25.4063C110.858 28.2089 112.591 29.5521 115.236 29.5521C116.414 29.5521 117.591 29.3614 118.702 28.9717L118.213 25.3814C117.707 25.5307 117.185 25.6136 116.663 25.6302ZM148.386 17.2307V28.0099C146.239 28.9385 143.926 29.4526 141.579 29.5024C137.16 29.5024 134.738 27.3714 134.738 23.8806C134.738 20.9454 136.894 18.7481 140.742 18.7481H143.867V18.0433C143.867 16.4928 142.707 15.8792 141.09 15.8792C139.349 15.9621 137.649 16.4347 136.115 17.2639L135.659 13.201C137.674 12.2723 139.871 11.7997 142.085 11.8163C144.713 11.8494 148.362 13.0103 148.362 17.2307H148.386ZM143.867 22.2057H141.455C140.062 22.2057 139.257 22.952 139.257 23.947C139.257 25.141 140.327 25.8209 141.811 25.8209C142.499 25.8209 143.188 25.7048 143.843 25.4975L143.867 22.2057ZM132.997 18.6818V22.1726H124.034V22.4628C123.885 24.0548 125.054 25.4726 126.646 25.6302C126.82 25.6468 126.986 25.6468 127.16 25.6302C128.652 25.6136 130.112 25.199 131.389 24.4362L132.649 28.0182C130.816 29.0629 128.727 29.5853 126.613 29.5355C122.956 29.5355 119.473 27.5621 119.473 22.5623V19.0134C119.473 14.6272 122.118 11.8494 126.322 11.8494C130.758 11.8494 132.997 14.7847 132.997 18.6818ZM128.644 18.4911C128.644 16.8825 127.898 15.7548 126.38 15.7548C124.863 15.7548 124.059 16.8825 124.059 18.4911V18.7813H128.644V18.4911ZM178.601 18.6818V22.1726H169.63V22.4628C169.48 24.0631 170.658 25.4809 172.258 25.6302C172.424 25.6468 172.59 25.6468 172.756 25.6302C174.248 25.6136 175.707 25.199 176.993 24.4362L178.245 28.0182C176.412 29.0629 174.323 29.5853 172.217 29.5355C168.56 29.5355 165.078 27.5621 165.078 22.5623V19.0134C165.078 14.6272 167.723 11.8494 171.918 11.8494C176.362 11.8494 178.601 14.7847 178.601 18.6818ZM174.24 18.4911C174.24 16.8825 173.502 15.7548 171.984 15.7548C170.467 15.7548 169.663 16.8825 169.663 18.4911V18.7813H174.24V18.4911Z" fill="#002148"/>
<path d="M10.7864 8.26678C10.9191 8.25849 11.06 8.25849 11.1927 8.26678L17.5856 9.19544L1.76509 0C2.04701 0.397999 2.16309 0.887207 2.08846 1.36812L0.015551 14.8255C-0.0922405 15.5054 0.372092 16.1438 1.04372 16.2516C1.04372 16.2516 1.05201 16.2516 1.0603 16.2516H1.24272C1.56609 16.2516 1.88117 16.1273 2.11334 15.8951L8.74666 9.12911C9.28562 8.58186 10.0153 8.27507 10.7864 8.26678Z" fill="#002148"/>
<path d="M40.8023 13.3411L11.0601 9.19531H10.7865C10.2641 9.19531 9.76662 9.4109 9.40178 9.78402L2.76846 16.5832C2.59434 16.7739 2.37046 16.9231 2.13 17.0143L22.0051 32.4119C23.9288 33.8879 26.6899 33.523 28.1658 31.5911C28.1658 31.5911 28.1658 31.5911 28.1658 31.5828L28.2985 31.3921L40.7359 13.4075L40.794 13.3411H40.8023Z" fill="#002148"/>
<path d="M46.1253 19.7255L43.8203 14.4022C43.5135 13.6975 42.6926 13.3741 41.9878 13.6892C41.7556 13.797 41.5484 13.9628 41.3991 14.1701L34.5751 24.1201L43.6959 21.6326L47.0126 20.7288C46.598 20.5132 46.2829 20.1567 46.1253 19.7255Z" fill="#002148"/>
</svg>
